<?xml version="1.0" encoding="UTF-8"?>
<svg width="25px" height="20px" viewBox="0 0 25 20" version="1.1" xmlns="http://www.w3.org/2000/svg" xmlns:xlink="http://www.w3.org/1999/xlink">
    <!-- Generator: Sketch 45 (43475) - http://www.bohemiancoding.com/sketch -->
    <title>antional_box</title>
    <desc>Created with Sketch.</desc>
    <defs></defs>
    <g id="icons" stroke="none" stroke-width="1" fill="none" fill-rule="evenodd">
        <g id="antional_box" fill="#333333">
            <g id="Page-1">
                <polygon id="Fill-1" points="10.5746143 10.7207988 15.6197389 10.7207988 15.6197389 9.05488408 10.5746143 9.05488408"></polygon>
                <path d="M23.344051,13.896505 L20.4578699,13.896505 L20.4578699,4.43758026 L6.1980791,4.43758026 L6.1980791,1.66660882 L23.344051,1.66660882 L23.344051,13.896505 Z M18.8019209,18.3340853 L11.4032788,18.3340853 C10.9996412,13.1093604 6.84941904,8.93416166 1.655949,8.52809496 L1.655949,6.10349495 L18.8019209,6.10349495 L18.8019209,18.3340853 Z M1.655949,10.1940096 C5.93726713,10.5910526 9.35266194,14.0270017 9.74732978,18.3340853 L1.655949,18.3340853 L1.655949,10.1940096 Z M25,-9.46633086e-30 L4.5421301,-9.46633086e-30 L4.5421301,4.43758026 L0,4.43758026 L0,20 L20.4578699,20 L20.4578699,15.5624197 L25,15.5624197 L25,-9.46633086e-30 Z" id="Fill-2"></path>
            </g>
        </g>
    </g>
</svg>