<?xml version="1.0" encoding="UTF-8"?>
<svg width="77px" height="77px" viewBox="0 0 77 77" version="1.1" xmlns="http://www.w3.org/2000/svg" xmlns:xlink="http://www.w3.org/1999/xlink">
    <!-- Generator: Sketch 46.1 (44463) - http://www.bohemiancoding.com/sketch -->
    <title>Page 1</title>
    <desc>Created with Sketch.</desc>
    <defs></defs>
    <g id="Welcome" stroke="none" stroke-width="1" fill="none" fill-rule="evenodd">
        <g id="desktop_product_TOP" transform="translate(-246.000000, -3439.000000)" fill="#FFFFFF">
            <g id="BUY-ONLINE-Copy" transform="translate(-4.000000, 3368.000000)">
                <g id="Page-1" transform="translate(250.000000, 71.000000)">
                    <g id="Group-3" transform="translate(0.000000, 0.124961)">
                        <path d="M34.3491493,56.2838762 C33.4104131,56.2838762 32.7560266,56.9145458 32.7649523,57.8114583 C32.7736231,58.6884791 33.4563171,59.3354701 34.3751615,59.3372552 C35.2878855,59.3390404 35.9810354,58.6744529 35.9751699,57.8027876 C35.9693044,56.9464235 35.2603431,56.2838762 34.3491493,56.2838762 L34.3491493,56.2838762 Z M46.0311993,56.2848963 C45.0784369,56.2736754 44.4276207,56.8752724 44.4179298,57.7762653 C44.408239,58.6624669 45.0715513,59.322719 45.9860604,59.3372552 C46.9225014,59.3523015 47.5934644,58.7318329 47.6049404,57.8397658 C47.6164164,56.9594297 46.9449433,56.2958623 46.0311993,56.2848963 L46.0311993,56.2848963 Z M34.5623477,48.5842505 C34.8859707,48.5842505 35.1379325,48.5842505 35.3898943,48.5842505 C40.0218597,48.5842505 44.6535702,48.5847606 49.2855357,48.5839955 C50.7080487,48.5837405 51.0339668,48.3549857 51.5355952,47.0061741 C53.2059896,42.5147258 54.8771491,38.0235325 56.5439732,33.530809 C57.1050217,32.0187833 56.518471,31.1583389 54.9363142,31.1580839 C46.7985607,31.1575739 38.6608071,31.1578289 30.5233085,31.1578289 C30.2504349,31.1578289 29.9775613,31.1578289 29.6870912,31.1578289 C29.1556253,29.5006956 28.6195689,27.8716148 28.1148803,26.232588 C27.9289692,25.6292059 27.6007558,25.1959234 27.0414925,24.8863266 C24.8133648,23.6540601 22.6000285,22.3950163 20.3775113,21.1525488 C20.1579373,21.0296282 19.922297,20.9097678 19.6792609,20.8600385 C18.9774403,20.7159511 18.2878607,21.1181209 18.0468648,21.7753127 C17.7836821,22.4937098 18.0425294,23.2105768 18.766027,23.6216723 C20.7401527,24.7432593 22.7201439,25.8546454 24.7085508,26.9502201 C25.1028149,27.1674989 25.3402404,27.4258362 25.4802475,27.874675 C27.058834,32.9353326 28.5917715,38.0120565 30.2899633,43.0326756 C31.1810104,45.6678184 31.6892693,48.3021962 31.4829565,51.075816 C31.4357774,51.7098008 31.4758159,52.3501611 31.4760709,52.9877163 C31.4765809,54.5992006 31.9557674,55.0862927 33.5539905,55.0868027 C38.5894009,55.0880779 43.6250663,55.0878228 48.6607317,55.0857827 C48.8935668,55.0855276 49.1284421,55.0768569 49.358982,55.0470193 C50.1788779,54.9416952 50.7371212,54.3390781 50.7447718,53.5653412 C50.7529325,52.7638069 50.1689321,52.1305872 49.3288894,52.0431146 C49.1182412,52.0214377 48.9045327,52.0283233 48.6923544,52.0283233 C44.2302336,52.0275583 39.7683678,52.0275583 35.3065021,52.0275583 L34.5623477,52.0275583 L34.5623477,48.5842505 Z M38.2843945,0.130061245 C59.4430639,0.136181774 76.6295098,17.2986556 76.6149736,38.4070856 C76.6001823,59.6096188 59.455815,76.7833136 38.2974007,76.7616367 C17.1048134,76.7397048 -0.126516438,59.5351523 0.000739563942,38.3293039 C0.129780721,16.8197242 17.436087,0.161683979 38.2843945,0.130061245 L38.2843945,0.130061245 Z" id="Fill-1"></path>
                    </g>
                    <path d="M53.0581789,34.2810074 C52.423174,35.9955206 51.8057656,37.6623447 51.1886122,39.3291689 C50.4600142,41.2976841 49.7245306,43.263649 49.0094488,45.2372647 C48.8852531,45.5802693 48.7291796,45.7238467 48.3379758,45.7223166 C43.7914427,45.7070153 39.2446546,45.7113507 34.6981215,45.714921 C34.4102016,45.715176 34.1885874,45.7182363 34.0725524,45.3522796 C32.9058265,41.6761368 31.7184438,38.0066245 30.5195852,34.2810074 L53.0581789,34.2810074 Z" id="Fill-4"></path>
                </g>
            </g>
        </g>
    </g>
</svg>