<?xml version="1.0" encoding="UTF-8"?>
<svg width="33px" height="30px" viewBox="0 0 33 30" version="1.1" xmlns="http://www.w3.org/2000/svg" xmlns:xlink="http://www.w3.org/1999/xlink">
    <!-- Generator: Sketch 45 (43475) - http://www.bohemiancoding.com/sketch -->
    <title>cart_white</title>
    <desc>Created with Sketch.</desc>
    <defs>
        <polygon id="path-1" points="0 29.9667832 32.9087562 29.9667832 32.9087562 0 0 0"></polygon>
    </defs>
    <g id="icons" stroke="none" stroke-width="1" fill="none" fill-rule="evenodd">
        <g id="cart_white">
            <g id="Page-1">
                <mask id="mask-2" fill="white">
                    <use xlink:href="#path-1"></use>
                </mask>
                <g id="Clip-2"></g>
                <path d="M24.3134752,24.7226196 C25.3552725,24.7226196 26.1837425,25.5522078 26.1837425,26.5955435 C26.1837425,27.6387622 25.3552725,28.4684675 24.3134752,28.4684675 C23.2717363,28.4684675 22.4432079,27.6387622 22.4432079,26.5955435 C22.4432079,25.5523249 23.2717363,24.7226196 24.3134752,24.7226196 L24.3134752,24.7226196 Z M13.0918712,24.7226196 C14.1336686,24.7226196 14.9621386,25.5522078 14.9621386,26.5955435 C14.9621386,27.6387622 14.1336686,28.4684675 13.0918712,28.4684675 C12.0501324,28.4684675 11.2216039,27.6387622 11.2216039,26.5955435 C11.2216039,25.5523249 12.0501324,24.7226196 13.0918712,24.7226196 L13.0918712,24.7226196 Z M24.3134752,23.2242219 C22.4631379,23.2242219 20.946994,24.7425194 20.946994,26.5955435 C20.946994,28.4485677 22.4631379,29.9668066 24.3134752,29.9668066 C26.1638709,29.9668066 27.6800148,28.4485677 27.6800148,26.5955435 C27.6800148,24.7425194 26.1638709,23.2242219 24.3134752,23.2242219 L24.3134752,23.2242219 Z M13.0918712,23.2242219 C11.241534,23.2242219 9.72539007,24.7425194 9.72539007,26.5955435 C9.72539007,28.4485677 11.241534,29.9668066 13.0918712,29.9668066 C14.942267,29.9668066 16.4584109,28.4485677 16.4584109,26.5955435 C16.4584109,24.7425194 14.942267,23.2242219 13.0918712,23.2242219 L13.0918712,23.2242219 Z M6.9550566,5.24421047 L31.2334643,5.24421047 L28.9540175,14.983415 L9.0124091,14.983415 L6.9550566,5.24421047 Z M0.748106929,2.34115494e-05 C0.334953188,2.34115494e-05 0,0.335452385 0,0.749134463 C0,1.1629336 0.334953188,1.49836257 0.748106929,1.49836257 L4.62891162,1.49836257 L8.56816217,20.1573674 C8.52800986,20.5842185 8.92380519,20.9982518 9.35133661,20.9767717 L28.0540098,20.9767717 C28.4492791,20.9823904 28.8127539,20.6234329 28.8127539,20.2275436 C28.8127539,19.8317713 28.4492791,19.4728723 28.0540098,19.478374 L9.95917349,19.478374 L9.32795827,16.4817542 L29.5502821,16.4817542 C29.8851769,16.4779498 30.2016612,16.2237589 30.2749523,15.8964654 L32.8933265,4.65892174 C32.9906389,4.22411074 32.6135462,3.74903187 32.1685979,3.74587131 L6.63944899,3.74587131 L5.9732247,0.585312146 C5.89905691,0.25415578 5.57561756,-0.00290303212 5.2367485,2.34115494e-05 L0.748106929,2.34115494e-05 Z" id="Fill-1" fill="#FFFFFF" mask="url(#mask-2)"></path>
            </g>
        </g>
    </g>
</svg>