<?xml version="1.0" encoding="UTF-8"?>
<svg width="106px" height="60px" viewBox="0 0 106 60" version="1.1" xmlns="http://www.w3.org/2000/svg" xmlns:xlink="http://www.w3.org/1999/xlink">
    <!-- Generator: Sketch 46.2 (44496) - http://www.bohemiancoding.com/sketch -->
    <title>Group 9</title>
    <desc>Created with Sketch.</desc>
    <defs>
        <polygon id="path-1" points="73.5558461 0 0 0 0 59.4737975 73.5558461 59.4737975"></polygon>
    </defs>
    <g id="Welcome" stroke="none" stroke-width="1" fill="none" fill-rule="evenodd">
        <g id="desktop_VetMap-4" transform="translate(-472.000000, -3193.000000)">
            <g id="Group-9" transform="translate(472.000000, 3193.000000)">
                <g id="Page-1">
                    <mask id="mask-2" fill="white">
                        <use xlink:href="#path-1"></use>
                    </mask>
                    <g id="Clip-2"></g>
                    <path d="M15.0800014,44.5838667 C13.9708459,44.990516 12.9934103,45.3487449 12.0159746,45.7069739 C10.1041894,46.408249 8.18830067,47.0988553 6.28554293,47.82352 C6.05246844,47.9121539 5.80708368,48.1460491 5.7057291,48.3737892 C4.97449893,50.0233656 4.24039637,51.6737628 3.59246571,53.356577 C3.36185327,53.9548562 3.39468067,54.6499763 3.25926767,55.2905208 C3.15627173,55.7792386 3.01429326,56.2679564 2.82102198,56.7279502 C2.66180913,57.1062859 2.34789719,57.2330817 1.97612696,56.9429696 C1.53377785,56.5974613 1.05080484,56.2909356 0.662620919,55.8924931 C0.0544934717,55.2679519 -0.144932938,54.5125116 0.10537593,53.6372512 C1.0930701,50.1879129 2.05614373,46.7315988 3.04876202,43.2839019 C3.10949269,43.0725756 3.31261219,42.8600182 3.50588346,42.7356845 C4.48660181,42.1066296 5.49399242,41.5190192 6.47676249,40.8932471 C8.42465789,39.6531923 9.32987324,37.9289335 8.88054831,35.5969576 C8.50221261,33.6342899 8.90598954,31.7676423 9.62573012,29.9588529 C10.119372,28.7187982 10.7024686,27.5140329 11.2117035,26.3683569 C10.2761228,25.0958851 9.22482559,23.8648579 8.39511324,22.4996487 C6.09842679,18.7195744 4.82636533,14.6218951 5.02989516,10.1557284 C5.16243576,7.24434899 6.05410981,4.58327848 8.00898104,2.36455709 C9.96959706,0.139270213 12.69345,-0.586215163 15.4653129,0.490933656 C16.6228888,0.941079277 17.7107066,1.63578897 18.7271247,2.36332606 C19.8149424,3.14215595 19.9265556,4.54347527 19.1345947,5.50080411 C18.3467373,6.45320883 17.0287175,6.50368095 15.9515687,5.70679599 C15.3495964,5.26198482 14.6885347,4.8582079 13.9954664,4.58450951 C12.7911114,4.10892266 11.8690721,4.43104145 11.0742388,5.46469397 C9.8510081,7.05559149 9.32618016,8.89351513 9.36475235,10.8619277 C9.45543802,15.5115175 11.0467459,19.5808831 14.2363374,23.0023181 C14.5892319,23.3806538 14.8859094,23.4426155 15.3910409,23.2288271 C17.4640908,22.3511047 19.6663985,22.3014533 21.8691165,22.3974734 C24.6262072,22.5177037 27.3853495,22.6325996 30.1354643,22.8513121 C33.6213231,23.1282932 37.1034887,23.4692878 40.5790889,23.8570614 C42.3316613,24.0527947 44.0706925,24.3880444 45.8064409,24.7109839 C46.3706617,24.8160316 46.8963103,25.2021638 47.4560173,25.2452497 C48.3526155,25.3145976 49.2894272,25.3301906 50.1622255,25.1463572 C52.4293673,24.6687186 54.509393,23.7208277 56.3464959,22.2854499 C56.6206047,22.0716615 56.9016892,21.8377664 57.0957812,21.5558611 C57.7531497,20.599353 58.6891407,20.0839629 59.7785998,19.8426816 C60.3674412,19.7121927 60.7958386,19.4085393 61.174995,18.9756281 C62.1064723,17.9120206 63.0441047,16.8533371 63.9825578,15.7889089 C64.778622,17.0014708 65.0404205,18.3966349 64.8594595,19.7187582 C65.816378,20.3617647 66.7006659,20.9378855 67.5619746,21.5464233 C67.776994,21.6982499 67.9751894,21.9264003 68.0863922,22.1639886 C68.69493,23.464774 69.7860304,24.3650653 70.7224318,25.392973 C71.423707,26.163596 71.3601039,27.112718 70.5820947,27.8258931 C70.3461478,28.0421436 70.1454904,28.3437452 70.0392117,28.6453469 C69.7088861,29.5792862 68.8816358,30.0786729 67.8795796,29.8607811 C66.3096096,29.5189659 64.8221183,29.6231929 63.5159985,30.6630005 C62.2841506,31.6437189 61.4347418,33.0097487 61.3879627,34.4890331 C61.2870185,37.6942177 60.8799588,40.92074 61.5221447,44.1234625 C62.0777483,46.8936841 63.3420133,49.2547943 65.4121907,51.1969449 C66.9723126,52.6602259 68.4897588,54.1698757 70.0092567,55.6762426 C70.2698241,55.9347584 70.5119262,56.0303681 70.8775412,55.9909753 C71.2776251,55.9478893 71.6998674,55.9478893 72.0921548,56.0274957 C73.096673,56.2318463 73.5558461,56.8399737 73.5558461,57.8645987 C73.5558461,58.1510177 73.5558461,58.4374367 73.5558461,58.7837657 C71.983414,58.7837657 70.4704816,58.7620175 68.9587802,58.7948449 C68.3855318,58.8071552 67.9107656,58.6807697 67.4524132,58.3315684 C64.12905,55.7993454 60.7900939,53.2884602 57.4700134,50.7529544 C56.9628302,50.3651809 56.5368948,49.87277 56.0535114,49.450938 C55.3321295,48.8214727 54.8947045,48.0664427 54.8549013,47.0877761 C54.8462841,46.8719359 54.7395951,46.6265512 54.602951,46.4546177 C52.6550556,44.0065149 49.2135139,43.4299838 46.5782949,45.1054119 C46.4244165,45.2034837 46.2816174,45.3598242 46.1991385,45.5219094 C44.4917038,48.8785103 42.7932966,52.239625 41.0952997,55.6007396 C41.0460586,55.6984011 41.0218484,55.8087832 40.9873796,55.9093171 C41.4371149,55.9844098 41.8675641,56.0057476 42.2635445,56.1337744 C42.9299406,56.3492042 43.1646564,56.8412047 43.08505,57.6774826 C43.0234986,58.3270546 42.7600588,58.6856938 42.0608354,58.7291901 C40.8593528,58.8034621 39.6508944,58.7825347 38.4465394,58.7607865 C38.3176919,58.7583245 38.093645,58.4887295 38.0846174,58.3327994 C38.0234764,57.3110468 37.8929875,56.2741115 38.0013179,55.2654899 C38.3648813,51.8859098 38.8183097,48.5157676 39.2389106,45.1423427 C39.3057964,44.6047941 39.3788374,44.0680663 39.4584438,43.4578871 C38.4916771,43.3540705 37.5560964,43.2502539 36.6192847,43.1546441 C36.0583466,43.0971961 35.4974086,43.0401585 34.9348291,43.0081518 C34.6713893,42.9929692 34.3964599,43.0036381 34.1395855,43.0606757 C32.0025223,43.5366729 29.8790003,44.0828386 27.7283958,44.4870259 C26.6931019,44.6815282 25.5983083,44.7361037 24.5605524,44.2161999 C23.4394969,47.1509688 21.8978405,49.7935739 19.4058311,51.835848 C20.3098154,53.2162399 21.2006687,54.5773457 22.0923428,55.9380411 C22.2737141,56.2146119 22.4333373,56.5104687 22.6508188,56.7550328 C22.7607906,56.8781355 22.9762203,56.9606144 23.1469228,56.9663592 C23.6089683,56.9811315 24.0792207,56.8900355 24.5342905,56.94338 C25.1715522,57.0180623 25.5482465,57.5051387 25.5650706,58.1547108 C25.5749188,58.540843 25.566712,58.9277959 25.566712,59.3980483 C24.7427444,59.3980483 23.9397043,59.3036695 23.1674399,59.4177447 C21.485036,59.6660019 20.2425192,59.086188 19.205584,57.7648855 C17.9958945,56.2228187 16.6782851,54.7656928 15.4214063,53.2597362 C15.1998214,52.9942447 15.0393775,52.675819 14.8641613,52.3738069 C14.4825429,51.7160281 14.3192266,51.0644043 14.592925,50.2806503 C15.2215695,48.4792472 14.9125817,46.5863376 15.0800014,44.5838667" id="Fill-1" fill="#0565D5" mask="url(#mask-2)"></path>
                </g>
                <path d="M83.99,50.948 C83.396,51.236 82.442,51.434 81.506,51.434 C78.662,51.434 76.898,49.544 76.898,46.16 C76.898,42.578 78.878,40.778 81.542,40.778 C82.568,40.778 83.378,41.012 83.954,41.282 L84.404,39.572 C84.026,39.374 83.054,39.032 81.47,39.032 C77.654,39.032 74.702,41.588 74.702,46.268 C74.702,50.66 77.276,53.198 81.11,53.198 C82.604,53.198 83.774,52.91 84.35,52.622 L83.99,50.948 Z M92.198,39.23 L96.41,53 L94.214,53 L92.972,48.95 L88.76,48.95 L87.572,53 L85.43,53 L89.642,39.23 L92.198,39.23 Z M89.084,47.348 L92.63,47.348 L91.55,43.748 C91.298,42.848 91.064,41.876 90.866,41.03 L90.83,41.03 C90.632,41.876 90.416,42.884 90.182,43.73 L89.084,47.348 Z M105.968,39.23 L96.446,39.23 L96.446,41.012 L100.154,41.012 L100.154,53 L102.242,53 L102.242,41.012 L105.968,41.012 L105.968,39.23 Z" id="CAT" fill="#0565D5"></path>
            </g>
        </g>
    </g>
</svg>