<?xml version="1.0" encoding="UTF-8"?>
<svg width="50px" height="62px" viewBox="0 0 50 62" version="1.1" xmlns="http://www.w3.org/2000/svg" xmlns:xlink="http://www.w3.org/1999/xlink">
    <!-- Generator: Sketch 46.2 (44496) - http://www.bohemiancoding.com/sketch -->
    <title>Page 1</title>
    <desc>Created with Sketch.</desc>
    <defs>
        <polygon id="path-1" points="1.00745095e-15 61.1555545 1.00745095e-15 0.100282229 49.4294272 0.100282229 49.4294272 61.1555545"></polygon>
    </defs>
    <g id="Welcome" stroke="none" stroke-width="1" fill="none" fill-rule="evenodd">
        <g id="desktop_VetMap-4" transform="translate(-282.000000, -2214.000000)">
            <g id="Page-1" transform="translate(282.000000, 2214.000000)">
                <g id="Group-6">
                    <g id="Group-3" transform="translate(0.000000, 0.324512)">
                        <mask id="mask-2" fill="white">
                            <use xlink:href="#path-1"></use>
                        </mask>
                        <g id="Clip-2"></g>
                        <path d="M32.8321907,42.0984453 C29.5048104,43.6195826 27.2276265,45.9850546 26.1836749,49.519804 C25.7637687,50.9421018 25.2618192,52.340282 24.7973382,53.7496597 C24.7592237,53.7528898 24.7213244,53.7561198 24.6832099,53.7595652 C24.3003415,52.6124674 23.9370687,51.4584789 23.529006,50.3206406 C23.1433382,49.2448192 22.7981538,48.1410041 22.2804847,47.1284916 C21.1189594,44.8564757 19.2575903,43.3036839 16.9444451,42.2627471 C12.7673468,40.382859 9.63269273,37.3937724 7.58161214,33.3038854 C2.13876563,22.4511389 8.16840423,9.17736361 19.9432218,6.23780443 C30.7117718,3.54954301 41.0944386,10.2002122 43.4271794,20.6280997 C45.389326,29.3991879 41.0119647,38.3593415 32.8321907,42.0984453 M48.8381561,19.4732498 C46.3090284,8.14030281 36.3673708,0.126983961 25.1020395,0.100282229 C21.7318072,0.125476605 18.7177416,0.543444839 15.8673317,1.70669285 C7.66020998,5.05646815 2.50828314,11.0622044 0.589634527,19.7267009 C-0.628524307,25.2279037 0.0495704727,30.5624359 2.5410143,35.6249981 C5.20752673,41.0435115 9.34866383,44.9566072 14.8526659,47.4301781 C16.3630364,48.1089189 17.341095,49.2273769 17.8501506,50.8116079 C18.5990911,53.142626 19.4094025,55.4538331 20.1887055,57.7751611 C20.5416421,58.8264341 21.1260655,59.7114673 22.0569654,60.3301292 C24.6963454,62.0846914 28.1664938,60.9311335 29.2367165,57.9198672 C30.0149427,55.7305406 30.7998444,53.5394912 31.4536062,51.3116194 C32.0442743,49.298438 33.2772914,48.0184776 35.1627782,47.1483026 C45.6664642,42.3012923 51.3535023,30.7450413 48.8381561,19.4732498" id="Fill-1" fill="#D0021B" mask="url(#mask-2)"></path>
                    </g>
                    <path d="M29.5597859,27.3533182 L26.9757473,27.3533182 L26.9757473,29.9373568 C26.9757473,31.1860934 25.9634502,32.1983905 24.7147136,32.1983905 C23.465977,32.1983905 22.4536799,31.1860934 22.4536799,29.9373568 L22.4536799,27.3533182 L19.8696413,27.3533182 C18.6209047,27.3533182 17.6086076,26.3410211 17.6086076,25.0922845 C17.6086076,23.8435479 18.6209047,22.8312508 19.8696413,22.8312508 L22.4536799,22.8312508 L22.4536799,20.2472122 C22.4536799,18.9984756 23.465977,17.9861785 24.7147136,17.9861785 C25.9634502,17.9861785 26.9757473,18.9984756 26.9757473,20.2472122 L26.9757473,22.8312508 L29.5597859,22.8312508 C30.8085225,22.8312508 31.8208196,23.8435479 31.8208196,25.0922845 C31.8208196,26.3410211 30.8085225,27.3533182 29.5597859,27.3533182 M34.7834198,19.0975304 C32.7596869,17.0875791 30.7546884,15.0593242 28.7298788,13.0508802 C26.4328839,10.7724042 23.0643743,10.7474252 20.7609193,13.0125503 C18.7697023,14.9706055 16.8198299,16.9708667 14.839595,18.9403347 C13.5393929,20.2334307 12.6511297,21.7457392 12.5929888,23.5991409 C12.5214971,25.8782629 12.5307566,28.1625529 12.586098,30.4427516 C12.6489763,33.0282975 14.773056,35.3926928 17.3392216,35.5468737 C19.7873828,35.6939486 22.2510482,35.5785282 24.7078228,35.5785282 C24.7080382,35.6075987 24.7080382,35.6368844 24.7080382,35.6659549 C26.8521442,35.6659549 28.9962501,35.6801671 31.1399254,35.6627248 C34.5424582,35.6349464 36.8691696,33.2933768 36.8827358,29.8990268 C36.8904879,27.9911451 36.8840278,26.0830479 36.8840278,24.1751661 C36.8842431,22.1927779 36.1955968,20.5002327 34.7834198,19.0975304" id="Fill-4" fill="#D0021B"></path>
                </g>
            </g>
        </g>
    </g>
</svg>