<?xml version="1.0" encoding="UTF-8"?>
<svg width="149px" height="149px" viewBox="0 0 149 149" version="1.1" xmlns="http://www.w3.org/2000/svg" xmlns:xlink="http://www.w3.org/1999/xlink">
    <!-- Generator: Sketch 46.2 (44496) - http://www.bohemiancoding.com/sketch -->
    <title>Page 1</title>
    <desc>Created with Sketch.</desc>
    <defs>
        <polygon id="path-1" points="2.1239202e-20 0.285435079 2.1239202e-20 148.359375 148.063701 148.359375 148.063701 0.285435079"></polygon>
    </defs>
    <g id="Welcome" stroke="none" stroke-width="1" fill="none" fill-rule="evenodd">
        <g id="desktop_Shopping-guideline" transform="translate(-465.000000, -5211.000000)">
            <g id="Page-1" transform="translate(465.000000, 5211.000000)">
                <g id="Group-3" transform="translate(0.000000, 0.237166)">
                    <mask id="mask-2" fill="white">
                        <use xlink:href="#path-1"></use>
                    </mask>
                    <g id="Clip-2"></g>
                    <path d="M134.895657,74.407137 C134.941105,40.9238888 107.931341,14.0081549 75.1251128,13.467479 C40.8593211,12.9032954 13.6803016,40.4182132 13.1683572,73.2688445 C12.6344724,107.499636 40.1217034,134.693283 73.0083798,135.195301 C107.370292,135.719783 134.91812,107.884639 134.895657,74.407137 M73.9936114,0.285435079 C114.953859,0.315733825 148.056283,33.2112909 148.064119,74.3240767 C148.071432,115.319324 115.083412,148.372121 74.0066712,148.359584 C32.9377663,148.346524 -0.0288360475,115.269175 -0.000104478433,74.2728823 C0.0291494828,33.2974856 33.0166476,0.359614767 73.9936114,0.285435079" id="Fill-1" fill="#231916" mask="url(#mask-2)"></path>
                </g>
                <path d="M77.1642707,72.9626182 L78.8735378,72.9626182 C86.7047188,72.9626182 94.5358997,72.9547824 102.367081,72.966275 C105.849869,72.9714989 108.692205,75.4340556 109.024969,78.6896035 C109.381763,82.1817952 107.293761,85.1212959 103.855898,85.9216007 C103.355969,86.0380941 102.823129,86.0495868 102.305961,86.0495868 C91.7771467,86.0569003 81.248855,86.057945 70.7205633,86.0537659 C66.6349342,86.0521987 63.7006574,82.8227704 64.022451,78.764828 C64.1044665,77.7331035 63.9848387,76.6862296 63.9843163,75.6466692 C63.9801372,65.3790512 63.9675998,55.1114332 63.9895402,44.8443375 C63.9968537,41.4409526 65.6272397,39.0348143 68.4633068,38.0542842 C72.7427434,36.5743472 77.1454645,39.7881038 77.1574796,44.4509762 C77.1804648,53.4131362 77.1642707,62.3752962 77.1642707,71.3374562 C77.1642707,71.8128331 77.1642707,72.2882099 77.1642707,72.9626182" id="Fill-4" fill="#231916"></path>
            </g>
        </g>
    </g>
</svg>