<?xml version="1.0" encoding="UTF-8"?>
<svg width="108px" height="71px" viewBox="0 0 108 71" version="1.1" xmlns="http://www.w3.org/2000/svg" xmlns:xlink="http://www.w3.org/1999/xlink">
    <!-- Generator: Sketch 46.2 (44496) - http://www.bohemiancoding.com/sketch -->
    <title>Group 2</title>
    <desc>Created with Sketch.</desc>
    <defs></defs>
    <g id="Welcome" stroke="none" stroke-width="1" fill="none" fill-rule="evenodd">
        <g id="desktop_VetMap-4" transform="translate(-329.000000, -3950.000000)" fill="#DB4A56">
            <g id="Group-2" transform="translate(329.000000, 3950.000000)">
                <path d="M13.2981822,7.52803218 C13.2981822,6.02506188 13.7144922,5.62035891 15.2604612,5.61961634 C28.0612364,5.61961634 40.8620116,5.61961634 53.6627868,5.61961634 C66.463562,5.61961634 79.2643372,5.61961634 92.0651124,5.61961634 C93.6133605,5.62035891 94.0296705,6.02431931 94.0296705,7.52580446 C94.0296705,22.9795173 94.0296705,38.4324876 94.0296705,53.8854579 C94.0296705,55.3394183 93.6065233,55.7500619 92.1091744,55.7500619 C66.4795155,55.7508045 40.8498566,55.7508045 15.2201977,55.7500619 C13.7198101,55.7500619 13.2981822,55.341646 13.2981822,53.8876856 C13.2981822,38.4339728 13.2981822,22.9810025 13.2981822,7.52803218 M14.9216395,61.3230817 C27.8363682,61.3238243 40.7510969,61.3230817 53.6650659,61.3230817 C66.5797946,61.3230817 79.4945233,61.3238243 92.4092519,61.3230817 C96.7729109,61.3223391 99.7303837,58.4404084 99.7303837,54.1862005 C99.7311434,38.5104579 99.7311434,22.8347153 99.7303837,7.15971535 C99.7303837,2.9292698 96.733407,0.000556930693 92.4046938,0.000556930693 C66.5752364,-0.000185643564 40.7465388,-0.000185643564 14.9170814,0.000556930693 C10.591407,0.000556930693 7.59746899,2.93149752 7.59746899,7.16342822 C7.5967093,22.8391708 7.5967093,38.5141708 7.59746899,54.1899134 C7.59746899,58.4396658 10.5572209,61.3223391 14.9216395,61.3230817" id="Fill-1"></path>
                <path d="M107.071644,67.0722772 C106.480605,65.7014851 105.297768,65.3465347 103.883226,65.3465347 C70.3930551,65.354703 36.9021248,65.3524752 3.4111946,65.3532178 C3.18404731,65.3532178 2.95538065,65.3398515 2.72975274,65.359901 C1.01817134,65.5143564 -0.0940147017,66.7462871 0.00626436811,68.3688119 C0.107303128,69.9950495 1.3455977,70.9715347 3.32383026,70.9715347 C20.0696752,70.9722772 36.8147605,70.9722772 53.5606055,70.9722772 C70.2775822,70.9722772 86.9945589,70.9722772 103.711536,70.9715347 C103.9949,70.9715347 104.281303,70.9893564 104.562388,70.9641089 C106.624187,70.7799505 107.855644,68.890099 107.071644,67.0722772" id="Fill-4"></path>
            </g>
        </g>
    </g>
</svg>