<?xml version="1.0" encoding="UTF-8"?>
<svg width="100px" height="100px" viewBox="0 0 100 100" version="1.1" xmlns="http://www.w3.org/2000/svg" xmlns:xlink="http://www.w3.org/1999/xlink">
    <!-- Generator: Sketch 44.1 (41455) - http://www.bohemiancoding.com/sketch -->
    <title>discount_symbol</title>
    <desc>Created with Sketch.</desc>
    <defs>
        <polygon id="path-1" points="0 50.0001 0 100 100.001 100 100.001 50.0001 100.001 0.0002 0 0.0002"></polygon>
    </defs>
    <g id="Welcome" stroke="none" stroke-width="1" fill="none" fill-rule="evenodd">
        <g id="desktop_product" transform="translate(-381.000000, -880.000000)">
            <g id="benefits" transform="translate(340.000000, 880.000000)">
                <g id="discount">
                    <g id="symbol_discount" transform="translate(41.000000, 0.000000)">
                        <g id="Page-1">
                            <g id="Group-3">
                                <mask id="mask-2" fill="white">
                                    <use xlink:href="#path-1"></use>
                                </mask>
                                <g id="Clip-2"></g>
                                <path d="M50,3.5182 C24.37,3.5182 3.518,24.3702 3.518,50.0002 C3.518,75.6302 24.37,96.4822 50,96.4822 C75.631,96.4822 96.483,75.6302 96.483,50.0002 C96.483,24.3702 75.631,3.5182 50,3.5182 M50,100.0002 C22.43,100.0002 0,77.5702 0,50.0002 C0,22.4302 22.43,0.0002 50,0.0002 C77.571,0.0002 100.001,22.4302 100.001,50.0002 C100.001,77.5702 77.571,100.0002 50,100.0002" id="Fill-1" fill="#13A620" mask="url(#mask-2)"></path>
                            </g>
                            <path d="M63.8405,35.5628 C63.2975,35.5628 62.7705,35.7918 62.3515,36.2108 C61.9215,36.5978 61.7185,37.0368 61.7035,37.5188 C61.6875,38.0838 61.9165,38.6328 62.3515,39.0678 C62.7375,39.4978 63.1765,39.7008 63.6585,39.7158 C64.2685,39.7258 64.7725,39.5018 65.2065,39.0678 C65.6405,38.6328 65.8715,38.0828 65.8555,37.5188 C65.8405,37.0368 65.6375,36.5978 65.2825,36.2848 L65.1355,36.1368 C64.8195,35.7818 64.3795,35.5778 63.8965,35.5638 C63.8785,35.5628 63.8585,35.5628 63.8405,35.5628 L63.8405,35.5628 Z M63.7115,43.2338 C63.6595,43.2338 63.6065,43.2338 63.5555,43.2318 C62.0935,43.1888 60.7575,42.5658 59.7915,41.4788 C58.7525,40.4438 58.1415,38.9348 58.1875,37.4148 C58.2295,35.9548 58.8525,34.6178 59.9385,33.6538 C60.9715,32.6148 62.4515,32.0258 63.9995,32.0468 C65.4265,32.0878 66.7345,32.6828 67.6955,33.7228 C68.7355,34.6818 69.3285,35.9888 69.3705,37.4148 C69.4165,38.9358 68.8055,40.4438 67.6945,41.5548 C66.6225,42.6268 65.1785,43.2338 63.7115,43.2338 L63.7115,43.2338 Z M25.2375,53.4988 L47.6615,75.9218 L74.8615,48.7208 L71.6695,29.5728 L52.5225,26.2138 L25.2375,53.4988 Z M47.6605,79.6518 C46.8955,79.6518 46.0915,79.3248 45.5595,78.7968 L22.4545,55.6908 C21.2465,54.4818 21.2465,52.5158 22.4525,51.3078 L50.2085,23.5528 C51.0685,22.6928 52.1825,22.6928 52.6595,22.6928 L52.9625,22.7188 L72.5095,26.1488 C73.6325,26.2358 74.5815,27.0738 75.0165,28.3798 L75.0815,28.6438 L78.3385,48.1868 C78.5505,48.9468 78.5455,50.0118 77.5205,51.0368 L49.7665,78.7918 C49.2255,79.3258 48.4215,79.6518 47.6605,79.6518 L47.6605,79.6518 Z" id="Fill-4" fill="#13A620"></path>
                        </g>
                    </g>
                </g>
            </g>
        </g>
    </g>
</svg>