<?xml version="1.0" encoding="UTF-8"?>
<svg width="118px" height="55px" viewBox="0 0 118 55" version="1.1" xmlns="http://www.w3.org/2000/svg" xmlns:xlink="http://www.w3.org/1999/xlink">
    <!-- Generator: Sketch 46.2 (44496) - http://www.bohemiancoding.com/sketch -->
    <title>Group 8</title>
    <desc>Created with Sketch.</desc>
    <defs>
        <polygon id="path-1" points="92.5539746 54.3058569 7.46390749e-05 54.3058569 7.46390749e-05 0.000139775192 92.5539746 0.000139775192 92.5539746 54.3058569"></polygon>
    </defs>
    <g id="Welcome" stroke="none" stroke-width="1" fill="none" fill-rule="evenodd">
        <g id="desktop_VetMap-4" transform="translate(-314.000000, -3198.000000)">
            <g id="Group-8" transform="translate(314.000000, 3198.000000)">
                <path d="M81.44,47.964 L81.44,34.41 C82.43,34.248 83.654,34.122 84.95,34.122 C90.818,34.122 92.042,37.74 92.042,40.8 L92.042,40.818 C92.042,43.32 91.268,45.138 90.062,46.308 C88.82,47.514 86.858,48.126 84.428,48.126 C83.204,48.126 82.214,48.072 81.44,47.964 Z M83.528,35.922 L83.528,46.38 C83.888,46.434 84.392,46.452 84.878,46.452 C87.974,46.47 89.846,44.652 89.846,40.854 C89.846,37.506 88.118,35.778 85.148,35.778 C84.428,35.778 83.888,35.85 83.528,35.922 Z M99.386,34.014 C103.04,34.014 105.128,37.02 105.128,40.98 C105.128,45.768 102.554,48.198 99.206,48.198 C95.696,48.198 93.446,45.354 93.446,41.196 C93.446,36.858 95.858,34.014 99.386,34.014 Z M99.314,35.724 C96.776,35.724 95.642,38.442 95.642,41.142 C95.642,43.932 96.902,46.488 99.278,46.488 C101.69,46.488 102.932,43.986 102.932,41.052 C102.932,38.424 101.78,35.724 99.314,35.724 Z M117.17,40.584 L112.778,40.584 L112.778,42.258 L115.154,42.258 L115.154,46.146 C114.848,46.308 114.218,46.434 113.318,46.434 C110.618,46.434 108.728,44.598 108.728,41.124 C108.728,37.632 110.762,35.85 113.588,35.85 C114.848,35.85 115.676,36.084 116.324,36.372 L116.792,34.662 C116.108,34.32 114.938,34.086 113.588,34.086 C109.466,34.086 106.532,36.75 106.532,41.214 C106.532,43.41 107.288,48.144 113.246,48.144 C114.884,48.144 116.396,47.748 117.17,47.442 L117.17,40.584 Z" id="DOG" fill="#D0021B"></path>
                <g id="Page-1">
                    <mask id="mask-2" fill="white">
                        <use xlink:href="#path-1"></use>
                    </mask>
                    <g id="Clip-2"></g>
                    <path d="M57.9937786,35.546188 C55.8994444,36.4200705 53.8578989,36.5795841 51.789959,36.2995745 C48.3948424,35.8399686 45.3181793,34.5191035 42.4601304,32.6709253 C41.766418,32.2222214 41.0761484,32.0506581 40.2395623,32.1143488 C38.8739416,32.2193524 37.819889,32.7765027 37.177244,33.9665436 C35.0909429,37.8281516 31.981,40.8474356 28.997291,43.9677067 C27.4055969,45.6322721 27.0366498,47.3318387 27.9627472,49.4376487 C28.0430779,49.620114 28.2754629,49.8335639 28.4596495,49.8570893 C29.4752582,49.9856183 30.189627,50.5846553 30.8603877,51.2777938 C31.2763856,51.7069889 31.7451722,52.0920021 32.1158407,52.5561984 C32.7470099,53.3474551 32.399293,54.2287968 31.4083574,54.2322396 C29.6451001,54.2385513 27.881269,54.1266622 26.1180117,54.0492005 C25.4300373,54.0187896 25.1224857,53.5666429 24.8424761,52.9721963 C23.3420148,49.7888083 22.7710935,46.3690187 22.2265666,43.0100509 C21.2539922,43.9481979 20.251007,44.8966731 19.2767112,45.8749853 C19.124083,46.0281873 19.0689992,46.3087707 19.031129,46.540582 C18.8693202,47.5309439 18.7591525,48.5299126 18.574392,49.5156842 C18.4745525,50.0452925 18.5904581,50.3637461 19.0810488,50.637444 C19.766728,51.0201621 20.4432267,51.447062 21.0388209,51.9542925 C21.3262898,52.1993009 21.6223655,52.718581 21.5506418,53.0290015 C21.4588353,53.4237692 21.0537395,53.9453445 20.6865137,54.042315 C18.8113674,54.5352008 16.9540085,54.3424073 15.2412448,53.4186051 C14.3335087,52.9285882 14.1642405,51.9646207 14.1516172,51.0115552 C14.1103043,47.9807954 14.5194167,44.9988077 15.1901774,42.0512475 C15.2905907,41.6105766 15.4707608,41.1750698 15.6842108,40.7757119 C16.476615,39.2947594 17.2982826,37.829873 18.0160941,36.1739145 C17.5863253,36.3127717 17.1077843,36.3735935 16.7342468,36.6042571 C15.2108339,37.545273 13.670781,38.4713704 12.22942,39.5294395 C10.637726,40.6976764 8.95881587,41.3764702 6.9494026,41.3386 C6.10765238,41.3225339 5.26590216,41.7672213 4.41095477,41.833781 C3.44985619,41.9089475 2.43309995,41.9577197 1.51446185,41.7253346 C-0.157562788,41.3030251 -0.51101755,40.0320798 0.785748297,38.9195006 C2.34531005,37.580848 4.07069718,36.4281035 5.76968995,35.2610143 C7.80664516,33.86154 9.87860156,32.5119854 11.9574434,31.1750543 C15.5069096,28.8925169 17.7877256,25.7097026 18.8377617,21.6312019 C18.9255516,21.2897967 19.0500641,20.9569984 19.126952,20.6132981 C20.1316586,16.1124878 23.0522507,13.346819 27.2242792,11.7666008 C30.9080123,10.3717169 34.7478163,9.90178269 38.6685247,10.0647391 C44.1281385,10.2913862 49.6026707,10.6482837 55.0330212,9.89202825 C59.9831092,9.20348001 64.9027864,8.2676282 69.0730935,5.1594067 C70.4220743,4.15412627 71.8261389,3.21540551 73.2560241,2.32775207 C74.9911656,1.25017408 76.8204088,0.377439192 78.8837583,0.0802158697 C80.282085,-0.12175828 81.6276231,0.0440670872 82.8268446,0.741222178 C84.018033,1.43321316 85.1535638,2.24340492 86.2276991,3.10868053 C87.1704364,3.86780497 87.3678202,4.99472891 87.2433077,6.14976858 C87.1939618,6.60650558 87.3293763,6.8337265 87.718406,7.0443075 C88.9830396,7.729413 90.2252954,8.45640518 91.4818959,9.1575768 C92.8475166,9.91957018 92.9031742,11.241009 91.6792797,12.2411253 C90.9735178,12.8183583 90.2740675,13.4604295 89.7576564,14.202914 C87.5950411,17.3105617 85.9413778,17.8286943 82.6449531,16.3844643 C82.2702681,17.4230246 82.065425,18.5786381 81.4738473,19.48121 C80.7089849,20.6482993 79.3795131,19.9172906 78.4103814,19.9740958 C77.848067,21.6948926 77.3993631,23.3979019 76.7400782,25.0148427 C75.5356925,27.9687146 73.5675921,30.4210939 71.4778482,32.8092088 C67.1916355,37.7076557 65.6596156,43.3589153 67.1365516,49.7641353 C67.2495883,50.2547259 67.4515624,50.5238335 67.9335462,50.6523625 C68.5354521,50.8135976 69.1103899,51.0890169 69.7174599,51.2152507 C70.8105302,51.4424716 71.2833334,52.2388924 71.5736712,53.1690063 C71.7911377,53.8655876 71.4520277,54.2517484 70.7003625,54.2546174 C68.223884,54.2655194 65.7479793,54.2454368 63.2720746,54.2706835 C62.7527945,54.2758476 62.4968841,54.0411674 62.2513019,53.6360716 C60.4989466,50.7390049 59.409319,47.5883229 58.8917603,44.2695204 C58.5073208,41.8073866 58.3833821,39.3050876 58.1406689,36.8211498 C58.1045201,36.4493338 58.0557479,36.0792391 57.9937786,35.546188" id="Fill-1" fill="#D0021B" mask="url(#mask-2)"></path>
                </g>
            </g>
        </g>
    </g>
</svg>