<?xml version="1.0" encoding="UTF-8"?>
<svg width="100px" height="100px" viewBox="0 0 100 100" version="1.1" xmlns="http://www.w3.org/2000/svg" xmlns:xlink="http://www.w3.org/1999/xlink">
    <!-- Generator: Sketch 44.1 (41455) - http://www.bohemiancoding.com/sketch -->
    <title>symbol_free</title>
    <desc>Created with Sketch.</desc>
    <defs>
        <polygon id="path-1" points="0.0004 0 100 0 100 99.9998 0.0004 99.9998"></polygon>
        <polygon id="path-3" points="0 100 100 100 100 0 0 0"></polygon>
    </defs>
    <g id="icons" stroke="none" stroke-width="1" fill="none" fill-rule="evenodd">
        <g id="symbol_free">
            <g id="Page-1">
                <g id="Group-3">
                    <mask id="mask-2" fill="white">
                        <use xlink:href="#path-1"></use>
                    </mask>
                    <g id="Clip-2"></g>
                    <path d="M49.9994,96.4818 C24.3694,96.4818 3.5184,75.6298 3.5184,50.0008 C3.5184,24.3698 24.3694,3.5178 49.9994,3.5178 C75.6304,3.5178 96.4814,24.3698 96.4814,50.0008 C96.4814,75.6298 75.6304,96.4818 49.9994,96.4818 M49.9994,-0.0002 C22.4294,-0.0002 0.0004,22.4298 0.0004,50.0008 C0.0004,77.5698 22.4294,99.9998 49.9994,99.9998 C77.5704,99.9998 100.0004,77.5698 100.0004,50.0008 C100.0004,22.4298 77.5704,-0.0002 49.9994,-0.0002" id="Fill-1" fill="#13A620" mask="url(#mask-2)"></path>
                </g>
                <mask id="mask-4" fill="white">
                    <use xlink:href="#path-3"></use>
                </mask>
                <g id="Clip-5"></g>
                <path d="M57.314,70.223 L65.855,70.223 L65.855,38.512 L57.314,38.512 L57.314,70.223 Z M34.145,70.224 L42.685,70.224 L42.685,38.513 L34.145,38.513 L34.145,70.224 Z M40.646,31.228 C40.646,29.134 42.35,27.431 44.444,27.431 C46.537,27.431 48.24,29.134 48.24,31.228 L48.24,34.994 L44.138,34.994 C42.189,34.836 40.646,33.216 40.646,31.228 L40.646,31.228 Z M46.203,70.223 L53.796,70.223 L53.796,38.512 L46.203,38.512 L46.203,70.223 Z M55.555,27.431 C57.649,27.431 59.353,29.134 59.353,31.228 C59.353,33.216 57.809,34.836 55.861,34.994 L51.759,34.994 L51.759,31.228 C51.759,29.134 53.462,27.431 55.555,27.431 L55.555,27.431 Z M62.871,31.228 C62.871,27.194 59.589,23.913 55.555,23.913 C53.332,23.913 51.342,24.913 49.999,26.482 C48.657,24.913 46.666,23.913 44.444,23.913 C40.41,23.913 37.128,27.194 37.128,31.228 C37.128,32.608 37.526,33.891 38.194,34.994 L30.626,34.994 L30.626,73.742 L69.374,73.742 L69.374,34.994 L61.805,34.994 C62.473,33.891 62.871,32.608 62.871,31.228 L62.871,31.228 Z" id="Fill-4" fill="#13A620" mask="url(#mask-4)"></path>
            </g>
        </g>
    </g>
</svg>