<?xml version="1.0" encoding="UTF-8"?>
<svg width="100px" height="100px" viewBox="0 0 100 100" version="1.1" xmlns="http://www.w3.org/2000/svg" xmlns:xlink="http://www.w3.org/1999/xlink">
    <!-- Generator: Sketch 44.1 (41455) - http://www.bohemiancoding.com/sketch -->
    <title>symbol_60_guarantee</title>
    <desc>Created with Sketch.</desc>
    <defs>
        <polygon id="path-1" points="0 49.9999 0 0 100.001 0 100.001 49.9999 100.001 99.9998 0 99.9998"></polygon>
        <polygon id="path-3" points="0 100 100.001 100 100.001 0 0 0"></polygon>
    </defs>
    <g id="icons" stroke="none" stroke-width="1" fill="none" fill-rule="evenodd">
        <g id="symbol_60_guarantee">
            <g id="Page-1">
                <g id="Group-3">
                    <mask id="mask-2" fill="white">
                        <use xlink:href="#path-1"></use>
                    </mask>
                    <g id="Clip-2"></g>
                    <path d="M50,96.4818 C24.37,96.4818 3.518,75.6298 3.518,49.9998 C3.518,24.3698 24.37,3.5178 50,3.5178 C75.631,3.5178 96.483,24.3698 96.483,49.9998 C96.483,75.6298 75.631,96.4818 50,96.4818 M50,-0.0002 C22.43,-0.0002 0,22.4298 0,49.9998 C0,77.5698 22.43,99.9998 50,99.9998 C77.571,99.9998 100.001,77.5698 100.001,49.9998 C100.001,22.4298 77.571,-0.0002 50,-0.0002" id="Fill-1" fill="#13A620" mask="url(#mask-2)"></path>
                </g>
                <path d="M32.7661,57.8425 C32.5031,58.6325 32.1211,59.3335 31.6221,59.9425 C31.1231,60.5535 30.5051,61.0325 29.7711,61.3775 C29.0361,61.7245 28.1831,61.8975 27.2111,61.8975 C26.2401,61.8975 25.3741,61.7245 24.6121,61.3775 C23.8491,61.0325 23.2111,60.5675 22.6981,59.9845 C22.1851,59.4025 21.7891,58.7095 21.5131,57.9045 C21.2341,57.1005 21.0961,56.2405 21.0961,55.3255 C21.0961,54.4105 21.2271,53.5435 21.4921,52.7245 C21.7541,51.9065 22.1491,51.1995 22.6771,50.6035 C23.2041,50.0065 23.8421,49.5355 24.5911,49.1885 C25.3401,48.8415 26.2141,48.6685 27.2111,48.6685 C28.2101,48.6685 29.0841,48.8485 29.8331,49.2095 C30.5821,49.5705 31.2061,50.0485 31.7051,50.6445 C32.2051,51.2415 32.5711,51.9485 32.8071,52.7665 C33.0431,53.5845 33.1611,54.4515 33.1611,55.3665 C33.1611,56.2265 33.0291,57.0515 32.7661,57.8425 M34.5141,48.2945 C33.7501,47.4345 32.8071,46.7625 31.6851,46.2765 C30.5611,45.7905 29.2921,45.5485 27.8781,45.5485 C26.2691,45.5485 24.8461,45.8535 23.6131,46.4635 C22.3781,47.0735 21.3451,48.0585 20.5141,49.4165 L20.4301,49.3345 C20.4581,48.1975 20.5691,46.9775 20.7641,45.6725 C20.9571,44.3695 21.3111,43.1555 21.8241,42.0325 C22.3371,40.9095 23.0521,39.9805 23.9671,39.2455 C24.8821,38.5105 26.0891,38.1425 27.5861,38.1425 C29.0001,38.1425 30.1381,38.5445 30.9981,39.3485 C31.8581,40.1535 32.3711,41.2215 32.5371,42.5535 L36.0741,42.5535 C35.8511,40.1125 35.0191,38.2475 33.5771,36.9575 C32.1351,35.6665 30.1931,35.0215 27.7531,35.0215 C25.6451,35.0215 23.8971,35.4665 22.5111,36.3535 C21.1231,37.2415 20.0151,38.4195 19.1821,39.8905 C18.3511,41.3605 17.7611,43.0455 17.4141,44.9445 C17.0681,46.8445 16.8941,48.8075 16.8941,50.8325 C16.8941,52.3855 17.0121,53.9935 17.2481,55.6575 C17.4821,57.3215 17.9611,58.8485 18.6831,60.2335 C19.4041,61.6215 20.4301,62.7575 21.7621,63.6455 C23.0931,64.5335 24.8551,64.9775 27.0451,64.9775 C28.9031,64.9775 30.4641,64.6645 31.7261,64.0405 C32.9881,63.4165 33.9991,62.6265 34.7631,61.6695 C35.5261,60.7125 36.0741,59.6525 36.4071,58.4875 C36.7391,57.3215 36.9061,56.1995 36.9061,55.1165 C36.9061,53.7585 36.6981,52.4965 36.2821,51.3305 C35.8651,50.1655 35.2761,49.1545 34.5141,48.2945" id="Fill-4" fill="#13A620"></path>
                <path d="M55.9817,53.723 C55.9117,55.096 55.6897,56.386 55.3147,57.593 C54.9417,58.799 54.3387,59.818 53.5057,60.651 C52.6737,61.482 51.5097,61.898 50.0117,61.898 C48.5137,61.898 47.3487,61.482 46.5157,60.651 C45.6847,59.818 45.0807,58.799 44.7067,57.593 C44.3317,56.386 44.1097,55.096 44.0407,53.723 C43.9717,52.35 43.9367,51.109 43.9367,50 C43.9367,49.279 43.9437,48.481 43.9577,47.607 C43.9717,46.733 44.0407,45.86 44.1657,44.987 C44.2907,44.113 44.4707,43.26 44.7067,42.428 C44.9427,41.596 45.2897,40.867 45.7467,40.243 C46.2047,39.619 46.7797,39.114 47.4737,38.725 C48.1667,38.338 49.0127,38.143 50.0117,38.143 C51.0097,38.143 51.8557,38.338 52.5497,38.725 C53.2427,39.114 53.8187,39.619 54.2757,40.243 C54.7337,40.867 55.0797,41.596 55.3147,42.428 C55.5507,43.26 55.7317,44.113 55.8567,44.987 C55.9817,45.86 56.0507,46.733 56.0637,47.607 C56.0777,48.481 56.0857,49.279 56.0857,50 C56.0857,51.109 56.0507,52.35 55.9817,53.723 M59.3307,43.26 C59.1087,42.151 58.7897,41.096 58.3727,40.098 C57.9577,39.099 57.3897,38.226 56.6677,37.477 C55.9457,36.728 55.0377,36.132 53.9427,35.688 C52.8467,35.245 51.5357,35.022 50.0117,35.022 C48.4857,35.022 47.1747,35.245 46.0797,35.688 C44.9837,36.132 44.0757,36.728 43.3547,37.477 C42.6337,38.226 42.0647,39.099 41.6487,40.098 C41.2327,41.096 40.9137,42.151 40.6927,43.26 C40.4707,44.37 40.3317,45.507 40.2757,46.672 C40.2207,47.836 40.1927,48.96 40.1927,50.041 C40.1927,51.123 40.2207,52.247 40.2757,53.411 C40.3317,54.576 40.4707,55.713 40.6927,56.823 C40.9137,57.932 41.2327,58.98 41.6487,59.964 C42.0647,60.948 42.6337,61.815 43.3547,62.564 C44.0757,63.313 44.9837,63.902 46.0797,64.333 C47.1747,64.762 48.4857,64.978 50.0117,64.978 C51.5647,64.978 52.8817,64.762 53.9637,64.333 C55.0447,63.902 55.9457,63.313 56.6677,62.564 C57.3897,61.815 57.9577,60.948 58.3727,59.964 C58.7897,58.98 59.1087,57.932 59.3307,56.823 C59.5527,55.713 59.6897,54.576 59.7457,53.411 C59.8027,52.247 59.8297,51.123 59.8297,50.041 C59.8297,48.96 59.8027,47.836 59.7457,46.672 C59.6897,45.507 59.5527,44.37 59.3307,43.26" id="Fill-6" fill="#13A620"></path>
                <mask id="mask-4" fill="white">
                    <use xlink:href="#path-3"></use>
                </mask>
                <g id="Clip-9"></g>
                <path d="M68.228,48.086 L79.003,48.086 L79.003,39.54 L68.228,39.54 L68.228,48.086 Z M68.228,60.151 L79.003,60.151 L79.003,51.605 L68.228,51.605 L68.228,60.151 Z M64.71,63.669 L82.521,63.669 L82.521,36.022 L64.71,36.022 L64.71,63.669 Z" id="Fill-8" fill="#13A620" mask="url(#mask-4)"></path>
            </g>
        </g>
    </g>
</svg>