<?xml version="1.0" encoding="UTF-8"?>
<svg width="140px" height="139px" viewBox="0 0 140 139" version="1.1" xmlns="http://www.w3.org/2000/svg" xmlns:xlink="http://www.w3.org/1999/xlink">
    <!-- Generator: Sketch 46.2 (44496) - http://www.bohemiancoding.com/sketch -->
    <title>Page 1</title>
    <desc>Created with Sketch.</desc>
    <defs></defs>
    <g id="Welcome" stroke="none" stroke-width="1" fill="none" fill-rule="evenodd">
        <g id="desktop_Subscribe" transform="translate(-1124.000000, -3489.000000)" fill="#E60214">
            <path d="M1192.20383,3600.25871 C1192.21573,3600.36037 1192.22718,3600.46249 1192.23909,3600.56415 C1194.40835,3600.21337 1196.64722,3600.09568 1198.73314,3599.46784 C1205.08339,3597.55594 1209.44344,3593.13545 1212.55056,3587.50462 C1218.06782,3577.50641 1223.40328,3567.40792 1228.80056,3557.34332 C1229.6766,3555.7103 1229.90649,3553.9367 1229.56624,3552.12784 C1228.93611,3548.77572 1225.58445,3547.18667 1222.66829,3548.92958 C1221.72218,3549.49468 1220.8727,3550.36111 1220.22747,3551.26645 C1217.97211,3554.43036 1215.8404,3557.68173 1213.62992,3560.8777 C1212.83036,3562.034 1211.68322,3562.59222 1210.26727,3562.34219 C1208.97496,3562.11414 1208.74599,3561.00043 1208.46986,3559.96456 C1208.39201,3559.67194 1208.29126,3559.36787 1208.30088,3559.0725 C1208.3659,3557.10152 1208.38147,3555.1246 1208.55549,3553.16232 C1209.01297,3548.00134 1209.54968,3542.84677 1210.04288,3537.68853 C1210.39137,3534.04745 1210.80123,3530.40958 1211.03066,3526.76071 C1211.18361,3524.33637 1209.93755,3522.91447 1207.56817,3522.37685 C1205.35586,3521.87495 1203.21454,3522.83158 1202.41223,3524.90743 C1201.95566,3526.08937 1201.78897,3527.40228 1201.61907,3528.67307 C1200.84058,3534.48661 1200.12482,3540.30795 1199.34586,3546.1215 C1199.12468,3547.7742 1198.82793,3549.4237 1198.42998,3551.04115 C1198.33107,3551.44276 1197.70369,3551.71432 1197.31902,3552.04541 C1197.07814,3551.66578 1196.67149,3551.30629 1196.62203,3550.90331 C1196.28545,3548.14468 1195.99694,3545.37963 1195.74279,3542.6123 C1195.09801,3535.59208 1194.49582,3528.56866 1193.84234,3521.54935 C1193.58772,3518.81682 1192.25008,3517.17145 1190.05929,3516.72037 C1186.05919,3515.89746 1182.78904,3519.0142 1183.16501,3523.17504 C1183.94351,3531.78981 1184.6611,3540.41007 1185.37823,3549.03033 C1185.46936,3550.12572 1185.45059,3551.23669 1185.38693,3552.33483 C1185.36953,3552.6334 1185.0247,3553.12432 1184.79161,3553.14813 C1184.46006,3553.18247 1183.94259,3552.95808 1183.77178,3552.67966 C1183.40039,3552.0738 1183.13845,3551.3814 1182.93558,3550.69357 C1180.69625,3543.10825 1178.50409,3535.50919 1176.2176,3527.93807 C1175.93414,3526.99884 1175.31225,3526.07105 1174.61802,3525.36262 C1172.41716,3523.11688 1168.67258,3523.97231 1167.85058,3526.9993 C1167.45812,3528.44364 1167.42424,3530.13664 1167.75075,3531.60022 C1169.4639,3539.28399 1171.35886,3546.92701 1173.1462,3554.59476 C1173.35639,3555.49599 1173.33716,3556.46224 1173.32434,3557.3969 C1173.32067,3557.668 1173.0111,3558.09067 1172.76565,3558.15524 C1172.55179,3558.21111 1172.16163,3557.9162 1171.97204,3557.67853 C1171.54707,3557.14457 1171.11477,3556.58772 1170.83177,3555.9727 C1169.25874,3552.55326 1167.69763,3549.12741 1166.20016,3545.67409 C1165.62178,3544.33965 1164.81627,3543.30517 1163.41131,3542.85638 C1161.43392,3542.22489 1159.71573,3542.80006 1158.2636,3544.17434 C1156.71027,3545.64478 1156.88978,3547.41747 1157.4874,3549.26297 C1160.93248,3559.89816 1164.42702,3570.51779 1167.76586,3581.18642 C1169.54129,3586.85938 1172.261,3591.83078 1177.03823,3595.51903 C1181.50589,3598.96777 1186.59177,3600.44784 1192.20383,3600.25871 M1263.24177,3558.03847 C1263.03478,3570.09603 1262.12073,3582.06246 1259.09512,3593.74222 C1256.10249,3605.29284 1249.88549,3614.65726 1239.22007,3620.60132 C1234.64067,3623.15342 1229.59783,3624.35826 1224.48448,3625.25261 C1214.62411,3626.97676 1204.66621,3627.6165 1194.67212,3627.6568 C1182.80415,3627.70488 1170.99754,3626.94104 1159.32923,3624.59959 C1152.09378,3623.14746 1145.52875,3620.36777 1140.11224,3615.19717 C1133.93875,3609.30348 1129.90475,3602.14496 1127.76343,3593.94829 C1125.39633,3584.88658 1124.15349,3575.63573 1124.04816,3566.27269 C1123.96894,3559.22682 1123.93917,3552.16264 1124.35315,3545.13372 C1124.87337,3536.31105 1125.99898,3527.51173 1128.895,3519.10899 C1132.07356,3509.88837 1137.50702,3502.26733 1145.92716,3497.01705 C1150.46305,3494.18835 1155.50223,3492.7724 1160.68519,3491.786 C1171.12531,3489.79854 1181.68082,3489.07042 1192.29038,3489.00447 C1203.2846,3488.93624 1214.22296,3489.64238 1225.05919,3491.56848 C1231.32015,3492.68127 1237.37824,3494.37931 1242.6592,3498.14541 C1250.7455,3503.91179 1255.81078,3511.81217 1258.64405,3521.17934 C1260.48772,3527.27406 1261.54831,3533.56158 1262.08547,3539.9045 C1262.59608,3545.93878 1262.86626,3551.9932 1263.24177,3558.03847" id="Page-1"></path>
        </g>
    </g>
</svg>