<?xml version="1.0" encoding="UTF-8"?>
<svg width="20px" height="20px" viewBox="0 0 20 20" version="1.1" xmlns="http://www.w3.org/2000/svg" xmlns:xlink="http://www.w3.org/1999/xlink">
    <!-- Generator: Sketch 44.1 (41455) - http://www.bohemiancoding.com/sketch -->
    <title>icon_calendar</title>
    <desc>Created with Sketch.</desc>
    <defs></defs>
    <g id="icons" stroke="none" stroke-width="1" fill="none" fill-rule="evenodd">
        <g id="icon_calendar" fill="#333333">
            <g id="Page-1">
                <path d="M17.165368,-0.0002 L17.165368,3.39472833 L15.6668041,3.39472833 L15.6668041,-0.0002 L4.33698008,-0.0002 L4.33698008,3.39472833 L2.8384162,3.39472833 L2.8384162,-0.0002 L0,-0.0002 L0,20.0035842 L20.0037842,20.0035842 L20.0037842,-0.0002 L17.165368,-0.0002 Z M1.49924504,18.5050203 L18.5059015,18.5050203 L18.5059015,5.58603741 L1.49924504,5.58603741 L1.49924504,18.5050203 Z" id="Fill-1"></path>
                <path d="M2.8145073,7.86582987 L6.21965311,7.86582987 L2.8145073,7.86582987 Z" id="Fill-2"></path>
                <polygon id="Fill-3" points="2.81389425 8.61517993 6.21972123 8.61517993 6.21972123 7.11661606 2.81389425 7.11661606"></polygon>
                <path d="M8.29884237,7.86582987 L11.7046693,7.86582987 L8.29884237,7.86582987 Z" id="Fill-4"></path>
                <polygon id="Fill-5" points="8.29931918 8.61517993 11.7051462 8.61517993 11.7051462 7.11661606 8.29931918 7.11661606"></polygon>
                <path d="M13.7837905,7.86582987 L17.1896175,7.86582987 L13.7837905,7.86582987 Z" id="Fill-6"></path>
                <polygon id="Fill-7" points="13.784063 8.61517993 17.1898899 8.61517993 17.1898899 7.11661606 13.784063 7.11661606"></polygon>
                <path d="M2.8145073,10.7324463 L6.21965311,10.7324463 L2.8145073,10.7324463 Z" id="Fill-8"></path>
                <polygon id="Fill-9" points="2.81389425 11.4822051 6.21972123 11.4822051 6.21972123 9.98364121 2.81389425 9.98364121"></polygon>
                <path d="M8.29884237,10.7324463 L11.7046693,10.7324463 L8.29884237,10.7324463 Z" id="Fill-10"></path>
                <polygon id="Fill-11" points="8.29931918 11.4822051 11.7051462 11.4822051 11.7051462 9.98364121 8.29931918 9.98364121"></polygon>
                <path d="M13.7837905,10.7324463 L17.1896175,10.7324463 L13.7837905,10.7324463 Z" id="Fill-12"></path>
                <polygon id="Fill-13" points="13.784063 11.4822051 17.1898899 11.4822051 17.1898899 9.98364121 13.784063 9.98364121"></polygon>
                <path d="M2.8145073,13.5990628 L6.21965311,13.5990628 L2.8145073,13.5990628 Z" id="Fill-14"></path>
                <polygon id="Fill-15" points="2.81389425 14.3485491 6.21972123 14.3485491 6.21972123 12.8499852 2.81389425 12.8499852"></polygon>
                <path d="M8.29884237,13.5990628 L11.7046693,13.5990628 L8.29884237,13.5990628 Z" id="Fill-16"></path>
                <polygon id="Fill-17" points="8.29931918 14.3485491 11.7051462 14.3485491 11.7051462 12.8499852 8.29931918 12.8499852"></polygon>
                <path d="M13.7837905,13.5990628 L17.1896175,13.5990628 L13.7837905,13.5990628 Z" id="Fill-18"></path>
                <polygon id="Fill-19" points="13.784063 14.3485491 17.1898899 14.3485491 17.1898899 12.8499852 13.784063 12.8499852"></polygon>
                <path d="M2.8145073,16.4656792 L6.21965311,16.4656792 L2.8145073,16.4656792 Z" id="Fill-20"></path>
                <polygon id="Fill-21" points="2.81389425 17.214893 6.21972123 17.214893 6.21972123 15.7163292 2.81389425 15.7163292"></polygon>
                <path d="M8.29884237,16.4656792 L11.7046693,16.4656792 L8.29884237,16.4656792 Z" id="Fill-22"></path>
                <polygon id="Fill-23" points="8.29931918 17.214893 11.7051462 17.214893 11.7051462 15.7163292 8.29931918 15.7163292"></polygon>
            </g>
        </g>
    </g>
</svg>