<?xml version="1.0" encoding="UTF-8"?>
<svg width="28px" height="28px" viewBox="0 0 28 28" version="1.1" xmlns="http://www.w3.org/2000/svg" xmlns:xlink="http://www.w3.org/1999/xlink">
    <!-- Generator: Sketch 44.1 (41455) - http://www.bohemiancoding.com/sketch -->
    <title>icon_discount</title>
    <desc>Created with Sketch.</desc>
    <defs></defs>
    <g id="icons" stroke="none" stroke-width="1" fill="none" fill-rule="evenodd">
        <g id="icon_discount">
            <g id="Page-1">
                <path d="M17.0717349,9.55268916 C16.625759,9.9490747 16.625759,10.6433398 17.0717349,11.0899904 C17.4684578,11.5359663 18.1623855,11.5359663 18.6090361,11.0899904 C19.0553494,10.6433398 19.0553494,9.9490747 18.6090361,9.55268916 C18.2119759,9.1063759 17.5177108,9.1063759 17.0717349,9.55268916" id="Fill-1" fill="#00A54B"></path>
                <path d="M21.6257202,13.939928 L13.5711681,21.9948204 C13.5211377,22.0441701 13.4210769,22.0948812 13.3210162,22.0948812 C13.2209554,22.0948812 13.1208946,22.0441701 13.0708642,21.9948204 L6.36713261,15.2907485 C6.21704145,15.140317 6.21704145,14.8905054 6.36713261,14.7404142 L14.4213444,6.68552178 C14.5214051,6.58580135 14.6714963,6.58580135 14.7715571,6.58580135 L20.4750213,7.58606876 C20.6254528,7.58606876 20.7251732,7.73615992 20.7752036,7.88625109 L21.725781,13.5897153 C21.775471,13.7398065 21.725781,13.8398672 21.6257202,13.939928 M14,0.000168674699 C6.26809286,0.000168674699 0,6.2679212 0,14.0001687 C0,21.7317355 6.26809286,27.9998283 14,27.9998283 C21.7319071,27.9998283 28,21.7317355 28,14.0001687 C28,6.2679212 21.7319071,0.000168674699 14,0.000168674699" id="Fill-3" fill="#13A620"></path>
            </g>
        </g>
    </g>
</svg>