<?xml version="1.0" encoding="UTF-8"?>
<svg width="47px" height="47px" viewBox="0 0 47 47" version="1.1" xmlns="http://www.w3.org/2000/svg" xmlns:xlink="http://www.w3.org/1999/xlink">
    <!-- Generator: Sketch 46.2 (44496) - http://www.bohemiancoding.com/sketch -->
    <title>Group 4</title>
    <desc>Created with Sketch.</desc>
    <defs>
        <polygon id="path-1" points="46.5741425 46.6781264 0.0635572703 46.6781264 0.0635572703 0.167249394 46.5741425 0.167249394 46.5741425 46.6781264"></polygon>
    </defs>
    <g id="Welcome" stroke="none" stroke-width="1" fill="none" fill-rule="evenodd">
        <g id="desktop_product_VOICE" transform="translate(-405.000000, -5587.000000)">
            <g id="Page-1" transform="translate(347.000000, 5587.000000)">
                <g id="Group-4" transform="translate(58.000000, 0.000000)">
                    <g id="Group-9" transform="translate(0.347658, 0.249645)">
                        <mask id="mask-2" fill="white">
                            <use xlink:href="#path-1"></use>
                        </mask>
                        <g id="Clip-8"></g>
                        <path d="M23.3188499,0.167249394 C17.0031327,0.167249394 16.2112716,0.193922609 13.7306626,0.307283773 C11.2554716,0.420228168 9.5650566,0.813241321 8.0855267,1.38796575 C6.55640129,1.98227833 5.25941621,2.77747355 3.96659882,4.07029094 C2.67378143,5.36310834 1.8785862,6.66009342 1.28427363,8.18963559 C0.709549198,9.66874872 0.316119275,11.3591637 0.20317488,13.8343547 C0.0902304853,16.3149637 0.0635572703,17.1068248 0.0635572703,23.422542 C0.0635572703,29.738676 0.0902304853,30.5305371 0.20317488,33.0107293 C0.316119275,35.4863371 0.709549198,37.1767521 1.28427363,38.6558652 C1.8785862,40.1849906 2.67378143,41.4819757 3.96659882,42.7747931 C5.25941621,44.0676105 6.55640129,44.8628057 8.0855267,45.4571183 C9.5650566,46.0322595 11.2554716,46.4252726 13.7306626,46.538217 C16.2112716,46.6515782 17.0031327,46.6782514 23.3188499,46.6782514 C29.6345671,46.6782514 30.4264282,46.6515782 32.9070372,46.538217 C35.3822282,46.4252726 37.0726432,46.0322595 38.5521731,45.4571183 C40.0812985,44.8628057 41.3782836,44.0676105 42.671101,42.7747931 C43.9639184,41.4819757 44.7591136,40.1849906 45.3534262,38.6558652 C45.9281506,37.1767521 46.3215805,35.4863371 46.4345249,33.0107293 C46.5474693,30.5305371 46.5741425,29.738676 46.5741425,23.422542 C46.5741425,17.1068248 46.5474693,16.3149637 46.4345249,13.8343547 C46.3215805,11.3591637 45.9281506,9.66874872 45.3534262,8.18963559 C44.7591136,6.66009342 43.9639184,5.36310834 42.671101,4.07029094 C41.3782836,2.77747355 40.0812985,1.98227833 38.5521731,1.38796575 C37.0726432,0.813241321 35.3822282,0.420228168 32.9070372,0.307283773 C30.4264282,0.193922609 29.6345671,0.167249394 23.3188499,0.167249394 M23.3188499,4.35744477 C29.528291,4.35744477 30.2638883,4.38120061 32.716157,4.49289469 C34.9833803,4.5962534 36.2149326,4.97509641 37.0343004,5.29392468 C38.1195669,5.7156949 38.8943404,6.2195686 39.7082902,7.03351843 C40.5218233,7.84705149 41.0261138,8.62182503 41.447884,9.70750824 C41.7662955,10.5268761 42.1451385,11.7580116 42.2484972,14.0256517 C42.3606081,16.4779204 42.3839471,17.2131009 42.3839471,23.422542 C42.3839471,29.6319831 42.3606081,30.3675804 42.2484972,32.8198491 C42.1451385,35.0870724 41.7662955,36.3186247 41.447884,37.1379926 C41.0261138,38.2236758 40.5218233,38.9984493 39.7082902,39.8119824 C38.8943404,40.6259322 38.1195669,41.1298059 37.0343004,41.5515761 C36.2149326,41.8699876 34.9833803,42.2488306 32.716157,42.3526061 C30.264305,42.4643002 29.5287078,42.488056 23.3188499,42.488056 C17.108992,42.488056 16.3733947,42.4643002 13.9215428,42.3526061 C11.6543195,42.2488306 10.4227672,41.8699876 9.60339935,41.5515761 C8.51813291,41.1298059 7.74335937,40.6259322 6.92940954,39.8119824 C6.11587648,38.9984493 5.611586,38.2236758 5.18981579,37.1379926 C4.87140429,36.3186247 4.49256128,35.0870724 4.38920257,32.8198491 C4.27709171,30.3675804 4.25375265,29.6319831 4.25375265,23.422542 C4.25375265,17.2131009 4.27709171,16.4779204 4.38920257,14.0256517 C4.49256128,11.7580116 4.87140429,10.5268761 5.18981579,9.70750824 C5.611586,8.62182503 6.11587648,7.84705149 6.92940954,7.03351843 C7.74335937,6.2195686 8.51813291,5.7156949 9.60339935,5.29392468 C10.4227672,4.97509641 11.6543195,4.5962534 13.9215428,4.49289469 C16.3738115,4.38120061 17.1094088,4.35744477 23.3188499,4.35744477" id="Fill-7" fill="#231916" mask="url(#mask-2)"></path>
                    </g>
                    <path d="M23.6665079,31.4241314 C19.3854568,31.4241314 15.9146047,27.9536961 15.9146047,23.6722283 C15.9146047,19.3911773 19.3854568,15.9203252 23.6665079,15.9203252 C27.9475589,15.9203252 31.418411,19.3911773 31.418411,23.6722283 C31.418411,27.9536961 27.9475589,31.4241314 23.6665079,31.4241314 M23.6665079,11.7301298 C17.0711387,11.7301298 11.7244093,17.0768591 11.7244093,23.6722283 C11.7244093,30.2675975 17.0711387,35.6143268 23.6665079,35.6143268 C30.261877,35.6143268 35.6086064,30.2675975 35.6086064,23.6722283 C35.6086064,17.0768591 30.261877,11.7301298 23.6665079,11.7301298" id="Fill-10" fill="#231916"></path>
                    <path d="M38.8709906,11.258514 C38.8709906,12.7997257 37.6215172,14.0491991 36.0803055,14.0491991 C34.5390938,14.0491991 33.2896204,12.7997257 33.2896204,11.258514 C33.2896204,9.71730231 34.5390938,8.46782889 36.0803055,8.46782889 C37.6215172,8.46782889 38.8709906,9.71730231 38.8709906,11.258514" id="Fill-12" fill="#231916"></path>
                </g>
            </g>
        </g>
    </g>
</svg>