<?xml version="1.0" encoding="UTF-8"?>
<svg width="22px" height="20px" viewBox="0 0 22 20" version="1.1" xmlns="http://www.w3.org/2000/svg" xmlns:xlink="http://www.w3.org/1999/xlink">
    <!-- Generator: Sketch 44.1 (41455) - http://www.bohemiancoding.com/sketch -->
    <title>paw</title>
    <desc>Created with Sketch.</desc>
    <defs>
        <polygon id="path-1" points="0.0313015544 0.0140918164 5.11058275 0.0140918164 5.11058275 7.04612132 0.0313015544 7.04612132"></polygon>
        <polygon id="path-3" points="0 5.99349012 0 0.03028716 5.00346871 0.03028716 5.00346871 5.99349012 3.14587284e-16 5.99349012"></polygon>
    </defs>
    <g id="Welcome" stroke="none" stroke-width="1" fill="none" fill-rule="evenodd">
        <g id="desktop_main" transform="translate(-380.000000, -2597.000000)">
            <g id="pet_info" transform="translate(0.000000, 1080.000000)">
                <g id="paw" transform="translate(380.000000, 1517.000000)">
                    <g id="Page-1">
                        <path d="M12.154874,3.03549301 C12.544992,1.11712974 13.9531066,-0.19548503 15.2999955,0.103756487 C16.6468462,0.402958084 17.4224608,2.20068263 17.0323045,4.11908583 C16.6421865,6.0374491 15.2340719,7.35002395 13.887183,7.05078244 C12.5403323,6.75158084 11.7647177,4.95385629 12.154874,3.03549301" id="Fill-1" fill="#D81222"></path>
                        <g id="Group-5" transform="translate(4.812500, 0.025828)">
                            <mask id="mask-2" fill="white">
                                <use xlink:href="#path-1"></use>
                            </mask>
                            <g id="Clip-4"></g>
                            <path d="M1.86452674,0.0565868263 C3.21141562,-0.242654691 4.61953021,1.06996008 5.00968646,2.98832335 C5.39980451,4.90672655 4.62418993,6.70441118 3.27730104,7.00361277 C1.93045035,7.30285429 0.522335764,5.99027944 0.132217708,4.07187625 C-0.257938542,2.15351297 0.517637847,0.355828343 1.86452674,0.0565868263" id="Fill-3" fill="#D81222" mask="url(#mask-2)"></path>
                        </g>
                        <g id="Group-8" transform="translate(0.000000, 5.934012)">
                            <mask id="mask-4" fill="white">
                                <use xlink:href="#path-3"></use>
                            </mask>
                            <g id="Clip-7"></g>
                            <path d="M0.882604861,0.303708583 C1.93585486,-0.384195609 3.51458403,0.270654691 4.40879236,1.76634331 C5.30300069,3.26203194 5.17409444,5.03217166 4.12088264,5.72007585 C3.06763264,6.40798004 1.48890347,5.75308982 0.594656944,4.2574012 C-0.299551389,2.76171257 -0.170645139,0.991572854 0.882604861,0.303708583" id="Fill-6" fill="#D81222" mask="url(#mask-4)"></path>
                        </g>
                        <path d="M17.5831104,7.68991617 C18.4773569,6.19402794 20.0561625,5.53905788 21.1095271,6.22696208 C22.1628917,6.91482635 22.2919125,8.68512575 21.397666,10.1809741 C20.5034576,11.6768224 18.9246139,12.3318323 17.8712493,11.6439281 C16.8179229,10.9560639 16.6889021,9.18576447 17.5831104,7.68991617" id="Fill-9" fill="#D81222"></path>
                        <path d="M12.2997417,9.12764471 C11.8597035,8.89770459 11.4197417,8.66776447 10.9797035,8.66776447 C10.515259,8.66776447 10.0997035,8.89770459 9.65974167,9.12764471 C6.92196389,10.6350299 5.06418611,12.9088822 4.42863056,16.1280439 C4.233075,17.1499601 4.20863056,18.1719561 4.55085278,19.1683633 C4.74640833,19.7048503 5.11303681,19.9858882 5.67529722,19.9858882 C5.94418611,19.9858882 6.213075,19.9603792 6.45751944,19.8837325 C7.01974167,19.7304391 7.58192569,19.5260479 8.14414792,19.3727545 C9.09748125,19.1428144 10.0263701,18.7340319 11.0041479,18.7340319 C11.9330368,18.7340319 12.9108528,19.1172655 13.8641861,19.3727545 C14.4264083,19.500499 14.9885924,19.7304391 15.5508528,19.8837325 C15.7952972,19.9603792 16.0641861,19.9858882 16.333075,19.9858882 C16.8708528,19.9858882 17.2619639,19.7304391 17.4575194,19.1683633 C17.7997417,18.1719561 17.775259,17.1244511 17.5797035,16.1280439 C16.9197417,12.9088822 15.0619257,10.6350299 12.2997417,9.12764471" id="Fill-11" fill="#D81222"></path>
                    </g>
                </g>
            </g>
        </g>
    </g>
</svg>