<?xml version="1.0" encoding="UTF-8"?>
<svg width="14px" height="14px" viewBox="0 0 14 14" version="1.1" xmlns="http://www.w3.org/2000/svg" xmlns:xlink="http://www.w3.org/1999/xlink">
    <!-- Generator: Sketch 44.1 (41455) - http://www.bohemiancoding.com/sketch -->
    <title>Page 1</title>
    <desc>Created with Sketch.</desc>
    <defs></defs>
    <g id="icons" stroke="none" stroke-width="1" fill="none" fill-rule="evenodd">
        <g id="login_icon_desktop" fill="#FFFFFF">
            <g id="Page-1">
                <path d="M6.64586364,8.32140909 C4.60106818,8.32140909 2.80747727,6.24336364 2.80747727,3.87465909 C2.80747727,1.66568182 4.45772727,0 6.64586364,0 C8.834,0 10.4839318,1.66584091 10.4839318,3.87465909 C10.4839318,6.24336364 8.6905,8.32140909 6.64586364,8.32140909" id="Fill-1"></path>
                <path d="M13.29125,13.8428182 L0,13.8428182 L0,13.5246364 C0,11.0868864 1.25952273,8.80504545 3.28729545,7.56970455 L3.52211364,7.42684091 L3.69775,7.63827273 C4.52486364,8.63402273 5.59427273,9.18240909 6.70918182,9.18240909 C7.80340909,9.18240909 8.85834091,8.65104545 9.67956818,7.68647727 L9.85838636,7.47663636 L10.0916136,7.62379545 C12.0952045,8.88729545 13.2914091,11.0934091 13.2914091,13.5247955 L13.2914091,13.8428182 L13.29125,13.8428182 Z" id="Fill-3"></path>
            </g>
        </g>
    </g>
</svg>