<?xml version="1.0" encoding="UTF-8"?>
<svg width="100px" height="31px" viewBox="0 0 100 31" version="1.1" xmlns="http://www.w3.org/2000/svg" xmlns:xlink="http://www.w3.org/1999/xlink">
    <!-- Generator: Sketch 44.1 (41455) - http://www.bohemiancoding.com/sketch -->
    <title>vp_logo</title>
    <desc>Created with Sketch.</desc>
    <defs>
        <polygon id="path-1" points="99.8154762 30.5555159 99.8154762 0.394900794 0.000198412698 0.394900794 0.000198412698 30.5555159 99.8154762 30.5555159"></polygon>
    </defs>
    <g id="Welcome" stroke="none" stroke-width="1" fill="none" fill-rule="evenodd">
        <g id="nav_dropdown" transform="translate(-260.000000, -35.000000)">
            <g id="nav">
                <g id="vp_logo" transform="translate(260.000000, 35.000000)">
                    <g id="Page-1">
                        <path d="M65.6809127,19.7386508 C65.3999603,19.7386508 65.1785317,19.8485714 65.0174206,20.07 C64.8670238,20.2763492 64.7920238,20.4846825 64.7920238,20.6961905 C64.7920238,20.8465873 64.8281349,20.9525397 64.9003571,21.0124603 C64.973373,21.0727778 65.100754,21.1029365 65.2817063,21.1029365 L66.0424206,21.1029365 C66.364246,21.1029365 66.5249603,20.9553175 66.5249603,20.6584921 C66.5249603,20.3870635 66.4475794,20.1660317 66.291627,19.9942063 C66.1356746,19.8235714 65.9321032,19.7386508 65.6809127,19.7386508" id="Fill-1" fill="#FFFFFF"></path>
                        <path d="M56.7192063,17.122381 C56.3469841,17.122381 56.1616667,17.2203968 56.1616667,17.4160317 L56.1616667,19.9795238 C56.1616667,20.1751587 56.204127,20.2938095 56.2898413,20.3338889 C56.4354762,20.404127 56.617619,20.4394444 56.8402381,20.4394444 C57.1719841,20.4394444 57.4501587,20.3465873 57.6771429,20.1604762 C58.0037302,19.8942063 58.1672222,19.4469841 58.1672222,18.8188095 C58.1672222,18.1652381 57.9755556,17.692619 57.5938095,17.4009524 C57.3521429,17.2152381 57.0612698,17.122381 56.7192063,17.122381" id="Fill-3" fill="#FFFFFF"></path>
                        <path d="M29.0235317,19.7386508 C28.7421825,19.7386508 28.5203571,19.8485714 28.3600397,20.07 C28.209246,20.2763492 28.134246,20.4846825 28.134246,20.6961905 C28.134246,20.8465873 28.170754,20.9525397 28.2429762,21.0124603 C28.3167857,21.0727778 28.4429762,21.1029365 28.6239286,21.1029365 L29.3854365,21.1029365 C29.7072619,21.1029365 29.8675794,20.9553175 29.8675794,20.6584921 C29.8675794,20.3870635 29.7905952,20.1660317 29.634246,19.9942063 C29.4778968,19.8235714 29.2747222,19.7386508 29.0235317,19.7386508" id="Fill-5" fill="#FFFFFF"></path>
                        <g id="Group-9" transform="translate(0.000000, 0.001905)">
                            <mask id="mask-2" fill="white">
                                <use xlink:href="#path-1"></use>
                            </mask>
                            <g id="Clip-8"></g>
                            <path d="M88.0087302,19.1654365 L87.7876984,19.1654365 L87.7876984,18.1578968 C87.7876984,18.1229762 87.7884921,18.0646429 87.7900794,17.9840873 C87.7916667,17.9035317 87.7924603,17.8174206 87.7924603,17.7253571 L87.3047619,19.1654365 L87.0753968,19.1654365 L86.5833333,17.7253571 L86.5833333,17.7773413 C86.5833333,17.8190079 86.5845238,17.8828968 86.5869048,17.9686111 C86.5892857,18.0543254 86.5904762,18.1174206 86.5904762,18.1578968 L86.5904762,19.1654365 L86.3694444,19.1654365 L86.3694444,17.4578968 L86.7007937,17.4578968 L87.1920635,18.9019444 L87.6797619,17.4578968 L88.0087302,17.4578968 L88.0087302,19.1654365 Z M86.1626984,17.6610714 L85.5873016,17.6610714 L85.5873016,19.1654365 L85.3535714,19.1654365 L85.3535714,17.6610714 L84.7781746,17.6610714 L84.7781746,17.4578968 L86.1626984,17.4578968 L86.1626984,17.6610714 Z M84.2015873,24.9797222 C84.0297619,25.3340873 83.8134921,25.6297222 83.5527778,25.8662302 C83.3571429,26.041627 83.1702381,26.1297222 82.9948413,26.1297222 C82.9190476,26.1297222 82.8214286,26.1039286 82.7011905,26.0543254 C82.4547619,25.9491667 82.1626984,25.8932143 81.8261905,25.8880556 L77.8761905,25.8880556 C77.2071429,25.8880556 76.8738095,25.6944048 76.8738095,25.3075 C76.8738095,25.2221825 76.8992063,25.1317063 76.9488095,25.0364683 C76.9996032,24.9408333 77.1753968,24.641627 77.4769841,24.1388492 L79.2027778,21.3650397 C79.5242063,20.8519444 79.6857143,20.5277381 79.6857143,20.3924206 C79.6857143,20.191627 79.4742063,20.0908333 79.0515873,20.0908333 C78.8353175,20.0908333 78.6642857,20.1317063 78.5353175,20.2146429 C78.4079365,20.2979762 78.2714286,20.4519444 78.125,20.6781349 C77.959127,20.9503571 77.8313492,21.1245635 77.7444444,21.2023413 C77.656746,21.2805159 77.5400794,21.3194048 77.3936508,21.3194048 C77.1972222,21.3194048 77.0373016,21.2432143 76.9111111,21.0896429 C76.7853175,20.9364683 76.722619,20.741627 76.722619,20.5055159 C76.722619,20.0531349 76.8753968,19.5654365 77.1833333,19.0428175 C77.4742063,18.5451984 77.7531746,18.2967857 78.0202381,18.2967857 C78.0789683,18.2967857 78.1599206,18.314246 78.2603175,18.3491667 C78.5376984,18.4444048 78.7571429,18.4999603 78.9198413,18.5150397 C79.0833333,18.530119 79.6948413,18.5479762 80.7559524,18.5678175 L82.7539683,18.5678175 C83.2150794,18.5678175 83.5111111,18.5769444 83.6388889,18.5940079 C83.7674603,18.6118651 83.8642857,18.6555159 83.9297619,18.725754 C84.0154762,18.8118651 84.0575397,18.9241667 84.0575397,19.0654365 C84.0575397,19.2515476 83.9746032,19.4908333 83.809127,19.7817063 L81.8111111,23.3328968 C81.6456349,23.6289286 81.5626984,23.8376587 81.5626984,23.9578968 C81.5626984,24.1944048 81.7400794,24.3126587 82.097619,24.3126587 C82.3539683,24.3126587 82.559127,24.2610714 82.7130952,24.1582937 C82.8654762,24.055119 83.0095238,23.8753571 83.1456349,23.6194048 C83.2607143,23.3876587 83.3571429,23.2340873 83.4313492,23.1555159 C83.5083333,23.0777381 83.597619,23.0388492 83.7031746,23.0388492 C83.9242063,23.0388492 84.1047619,23.1261508 84.2456349,23.3027381 C84.3869048,23.4785317 84.4571429,23.7039286 84.4571429,23.980119 C84.4571429,24.2924206 84.3714286,24.625754 84.2015873,24.9797222 L84.2015873,24.9797222 Z M75.9992063,25.1793254 C75.2861111,25.7876587 74.4214286,26.0920238 73.4059524,26.0920238 C72.6019841,26.0920238 71.956746,25.864246 71.468254,25.4094841 C70.981746,24.955119 70.7365079,24.3559127 70.7365079,23.6110714 L70.7365079,20.1285317 C70.7365079,20.0130556 70.7238095,19.9412302 70.6956349,19.9134524 C70.6678571,19.8860714 70.5964286,19.8717857 70.4805556,19.8717857 L69.7043651,19.8717857 C69.5579365,19.8717857 69.4650794,19.848373 69.425,19.800754 C69.3853175,19.7523413 69.365873,19.6412302 69.365873,19.4654365 L69.365873,19.1336905 C69.3702381,18.9832937 69.4277778,18.8721825 69.5392857,18.8019444 L72.9912698,16.630119 C73.0765873,16.5852778 73.1821429,16.5622619 73.3079365,16.5622619 L73.9186508,16.5622619 C74.0448413,16.5622619 74.1281746,16.591627 74.1710317,16.6495635 C74.2142857,16.7071032 74.2353175,16.8217857 74.2353175,16.9920238 L74.2353175,18.009881 C74.2353175,18.1602778 74.2595238,18.2590873 74.3063492,18.3039286 C74.3543651,18.3491667 74.4563492,18.3717857 74.6119048,18.3717857 L76.0059524,18.3717857 C76.1924603,18.3717857 76.3138889,18.4055159 76.3686508,18.4741667 C76.4230159,18.5412302 76.4515873,18.6864683 76.4515873,18.9075 L76.4515873,19.3523413 C76.4515873,19.5936111 76.4170635,19.759881 76.3456349,19.8527381 C76.2757937,19.9467857 76.1472222,19.9924206 75.9611111,19.9924206 L74.5968254,19.9924206 C74.4563492,19.9924206 74.3607143,20.0178175 74.3111111,20.0682143 C74.2603175,20.1182143 74.2353175,20.2138492 74.2353175,20.3543254 L74.2353175,22.9031349 C74.2353175,23.2043254 74.309127,23.450754 74.4579365,23.641627 C74.6051587,23.8328968 74.7956349,23.9281349 75.0265873,23.9281349 C75.2230159,23.9281349 75.4809524,23.8376587 75.8031746,23.6567063 C75.8789683,23.6110714 75.9543651,23.5884524 76.0301587,23.5884524 C76.15,23.5884524 76.2603175,23.6622619 76.3619048,23.8071032 C76.4619048,23.9535317 76.5123016,24.1118651 76.5123016,24.2821032 C76.5123016,24.5944048 76.3404762,24.8932143 75.9992063,25.1793254 L75.9992063,25.1793254 Z M69.1563492,22.1979762 C69.0198413,22.4067063 68.8444444,22.5106746 68.6277778,22.5106746 L65.0853175,22.5106746 C64.9293651,22.5106746 64.8507937,22.5793254 64.8507937,22.7138492 C64.8507937,23.041627 65.0289683,23.348373 65.3833333,23.6380556 C65.7373016,23.9265476 66.1178571,24.0713889 66.5246032,24.0713889 C66.7670635,24.0713889 67.034127,24.0241667 67.3285714,23.9321032 C67.6222222,23.839246 67.8638889,23.7241667 68.0547619,23.5884524 C68.2261905,23.4682143 68.3623016,23.4078968 68.4634921,23.4078968 C68.593254,23.4078968 68.7218254,23.4884524 68.8472222,23.6487698 C68.972619,23.809881 69.0353175,23.975754 69.0353175,24.1467857 C69.0353175,24.5086905 68.809127,24.8582937 68.356746,25.1951984 C67.5579365,25.7928175 66.6361111,26.091627 65.5896825,26.091627 C64.5345238,26.091627 63.65,25.7856746 62.9369048,25.1721825 C62.590873,24.8705952 62.3031746,24.5055159 62.077381,24.0785317 C61.7809524,23.5110714 61.631746,22.9126587 61.631746,22.284881 C61.631746,21.4400397 61.8900794,20.6813095 62.402381,20.0078968 C62.843254,19.4249603 63.4063492,18.9900397 64.0900794,18.7035317 C64.6031746,18.4880556 65.1571429,18.3797222 65.7555556,18.3797222 C66.7107143,18.3797222 67.5222222,18.650754 68.1912698,19.1936111 C68.5277778,19.4654365 68.8,19.7868651 69.0051587,20.1590873 C69.2412698,20.5813095 69.359127,20.9932143 69.359127,21.3951984 C69.359127,21.7221825 69.2912698,21.9896429 69.1563492,22.1979762 L69.1563492,22.1979762 Z M60.375,21.2519444 C59.6361111,21.8297222 58.7412698,22.1186111 57.6916667,22.1186111 C57.425,22.1186111 57.0988095,22.1015476 56.7115079,22.066627 C56.5059524,22.050754 56.377381,22.0436111 56.3265873,22.0436111 C56.1813492,22.0436111 56.109127,22.1269444 56.109127,22.2924206 L56.109127,22.3376587 L56.1615079,23.5737698 C56.1710317,23.8158333 56.2154762,23.9948016 56.293254,24.1130556 C56.3710317,24.2313095 56.531746,24.3519444 56.7718254,24.4793254 C57.0988095,24.6543254 57.2611111,24.8459921 57.2611111,25.0511508 C57.2611111,25.3682143 57.0210317,25.6118651 56.5384921,25.7825 C56.0555556,25.9535317 55.3722222,26.0388492 54.4880952,26.0388492 C52.6285714,26.0388492 51.6984127,25.7201984 51.6984127,25.0821032 C51.6984127,24.9309127 51.7380952,24.8154365 51.8186508,24.7344841 C51.8988095,24.6543254 52.0876984,24.539246 52.3845238,24.3884524 C52.5650794,24.2924206 52.6722222,24.1590873 52.7007937,23.9880556 C52.731746,23.8178175 52.7515873,23.2670238 52.7611111,22.3376587 L52.7611111,18.3717857 C52.7611111,17.8586905 52.7261905,17.5340873 52.6559524,17.3955952 C52.5853175,17.2571032 52.3944444,17.1451984 52.0825397,17.0602778 C51.6305556,16.9293254 51.4047619,16.7031349 51.4047619,16.3813095 C51.4047619,16.1559127 51.5,15.9825 51.690873,15.8618651 C51.8821429,15.7404365 52.159127,15.6809127 52.5202381,15.6809127 C52.6412698,15.6809127 52.9392857,15.6880556 53.4166667,15.7031349 L53.8694444,15.7031349 C54.7035714,15.6987698 55.1924603,15.6912302 55.3365079,15.6844841 C55.4789683,15.6765476 55.9896825,15.6332937 56.8698413,15.5531349 C57.1611111,15.5221825 57.427381,15.5071032 57.6690476,15.5071032 C58.493254,15.5071032 59.2269841,15.6753571 59.8702381,16.0126587 C60.9912698,16.5955952 61.5507937,17.5201984 61.5507937,18.7864683 C61.5507937,19.8118651 61.159127,20.6332937 60.375,21.2519444 L60.375,21.2519444 Z M51.0257937,10.914246 L51.0257937,12.5261508 C51.0257937,13.5924206 51.1448413,14.0658333 49.6515873,14.0658333 C48.1587302,14.0658333 48.2769841,13.5924206 48.2769841,12.5261508 L48.2769841,10.914246 C48.2769841,10.2515476 48.325,9.91980159 48.1833333,9.80115079 C48.0404762,9.6825 47.7329365,9.70630952 47.0686508,9.70630952 L45.4583333,9.70630952 C44.3916667,9.70630952 43.9174603,9.82456349 43.9174603,8.33210317 C43.9174603,6.83924603 44.3916667,6.9575 45.4583333,6.9575 L47.0686508,6.9575 C47.7329365,6.9575 48.0404762,6.98170635 48.1833333,6.83924603 C48.3007937,6.72059524 48.2769841,6.41265873 48.2769841,5.74876984 L48.2769841,4.13765873 C48.2769841,3.07138889 48.1587302,2.59797619 49.6515873,2.59797619 C51.1448413,2.59797619 51.0257937,3.07138889 51.0257937,4.13765873 L51.0257937,5.74876984 C51.0257937,6.41265873 51.0257937,6.69718254 51.1448413,6.83924603 C51.2630952,6.98170635 51.5714286,6.9575 52.234127,6.9575 L53.8460317,6.9575 C54.9123016,6.9575 55.3861111,6.83924603 55.3861111,8.33210317 C55.3861111,9.82456349 54.9123016,9.70630952 53.8460317,9.70630952 L52.234127,9.70630952 C51.5714286,9.70630952 51.2630952,9.6825 51.1448413,9.80115079 C51.002381,9.94321429 51.0257937,10.2515476 51.0257937,10.914246 L51.0257937,10.914246 Z M47.5428571,24.9797222 C47.3730159,25.3340873 47.1563492,25.6297222 46.8948413,25.8662302 C46.7,26.041627 46.5130952,26.1297222 46.3380952,26.1297222 C46.2626984,26.1297222 46.1634921,26.1039286 46.0440476,26.0543254 C45.7968254,25.9491667 45.5063492,25.8932143 45.1686508,25.8880556 L41.218254,25.8880556 C40.5503968,25.8880556 40.215873,25.6944048 40.215873,25.3075 C40.215873,25.2221825 40.2416667,25.1317063 40.2912698,25.0364683 C40.3424603,24.9408333 40.5166667,24.641627 40.8198413,24.1388492 L42.5456349,21.3650397 C42.8670635,20.8519444 43.0277778,20.5277381 43.0277778,20.3924206 C43.0277778,20.191627 42.8174603,20.0908333 42.3944444,20.0908333 C42.1785714,20.0908333 42.0063492,20.1317063 41.8781746,20.2146429 C41.7507937,20.2979762 41.6134921,20.4519444 41.4674603,20.6781349 C41.3015873,20.9503571 41.175,21.1245635 41.0880952,21.2023413 C40.9992063,21.2805159 40.8825397,21.3194048 40.7357143,21.3194048 C40.540873,21.3194048 40.3785714,21.2432143 40.2539683,21.0896429 C40.1289683,20.9364683 40.0646825,20.741627 40.0646825,20.5055159 C40.0646825,20.0531349 40.2190476,19.5654365 40.5253968,19.0428175 C40.8166667,18.5451984 41.0956349,18.2967857 41.3623016,18.2967857 C41.422619,18.2967857 41.5031746,18.314246 41.6039683,18.3491667 C41.8793651,18.4444048 42.1,18.4999603 42.2634921,18.5150397 C42.4261905,18.530119 43.0376984,18.5479762 44.0988095,18.5678175 L46.0960317,18.5678175 C46.5579365,18.5678175 46.8539683,18.5769444 46.981746,18.5940079 C47.1099206,18.6118651 47.206746,18.6555159 47.2722222,18.725754 C47.3575397,18.8118651 47.4,18.9241667 47.4,19.0654365 C47.4,19.2515476 47.318254,19.4908333 47.1515873,19.7817063 L45.1535714,23.3328968 C44.9884921,23.6289286 44.9051587,23.8376587 44.9051587,23.9578968 C44.9051587,24.1944048 45.0837302,24.3126587 45.4404762,24.3126587 C45.6968254,24.3126587 45.9019841,24.2610714 46.0559524,24.1582937 C46.2079365,24.055119 46.3527778,23.8753571 46.4880952,23.6194048 C46.6043651,23.3876587 46.7,23.2340873 46.775,23.1555159 C46.85,23.0777381 46.9400794,23.0388492 47.0460317,23.0388492 C47.2670635,23.0388492 47.4480159,23.1261508 47.5888889,23.3027381 C47.7297619,23.4785317 47.7996032,23.7039286 47.7996032,23.980119 C47.7996032,24.2924206 47.7134921,24.625754 47.5428571,24.9797222 L47.5428571,24.9797222 Z M39.3416667,25.1793254 C38.6281746,25.7876587 37.7634921,26.0920238 36.7484127,26.0920238 C35.9440476,26.0920238 35.2988095,25.864246 34.8111111,25.4094841 C34.3234127,24.955119 34.0797619,24.3559127 34.0797619,23.6110714 L34.0797619,20.1285317 C34.0797619,20.0130556 34.0662698,19.9412302 34.0388889,19.9134524 C34.0103175,19.8860714 33.9392857,19.8717857 33.8238095,19.8717857 L33.0464286,19.8717857 C32.9011905,19.8717857 32.8075397,19.848373 32.768254,19.800754 C32.727381,19.7523413 32.7075397,19.6412302 32.7075397,19.4654365 L32.7075397,19.1336905 C32.7123016,18.9832937 32.7698413,18.8721825 32.8813492,18.8019444 L36.3337302,16.630119 C36.4198413,16.5852778 36.525,16.5622619 36.6507937,16.5622619 L37.2607143,16.5622619 C37.3865079,16.5622619 37.4702381,16.591627 37.5126984,16.6495635 C37.5559524,16.7071032 37.5781746,16.8217857 37.5781746,16.9920238 L37.5781746,18.009881 C37.5781746,18.1602778 37.6015873,18.2590873 37.6484127,18.3039286 C37.697619,18.3491667 37.7988095,18.3717857 37.9539683,18.3717857 L39.3492063,18.3717857 C39.5345238,18.3717857 39.6555556,18.4055159 39.7107143,18.4741667 C39.7654762,18.5412302 39.7936508,18.6864683 39.7936508,18.9075 L39.7936508,19.3523413 C39.7936508,19.5936111 39.7579365,19.759881 39.6880952,19.8527381 C39.6178571,19.9467857 39.4896825,19.9924206 39.3027778,19.9924206 L37.9396825,19.9924206 C37.7988095,19.9924206 37.7031746,20.0178175 37.6531746,20.0682143 C37.6031746,20.1182143 37.5781746,20.2138492 37.5781746,20.3543254 L37.5781746,22.9031349 C37.5781746,23.2043254 37.652381,23.450754 37.7996032,23.641627 C37.9488095,23.8328968 38.1373016,23.9281349 38.3686508,23.9281349 C38.5650794,23.9281349 38.8230159,23.8376587 39.1460317,23.6567063 C39.2210317,23.6110714 39.297619,23.5884524 39.3718254,23.5884524 C39.4920635,23.5884524 39.6019841,23.6622619 39.7035714,23.8071032 C39.8043651,23.9535317 39.8543651,24.1118651 39.8543651,24.2821032 C39.8543651,24.5944048 39.6837302,24.8932143 39.3416667,25.1793254 L39.3416667,25.1793254 Z M32.4992063,22.1979762 C32.3634921,22.4067063 32.1869048,22.5106746 31.9710317,22.5106746 L28.4277778,22.5106746 C28.2722222,22.5106746 28.1944444,22.5793254 28.1944444,22.7138492 C28.1944444,23.041627 28.3714286,23.348373 28.7257937,23.6380556 C29.0797619,23.9265476 29.4603175,24.0713889 29.8674603,24.0713889 C30.1095238,24.0713889 30.3765873,24.0241667 30.6702381,23.9321032 C30.9646825,23.839246 31.2075397,23.7241667 31.3980159,23.5884524 C31.5686508,23.4682143 31.7039683,23.4078968 31.8047619,23.4078968 C31.9357143,23.4078968 32.0642857,23.4884524 32.1896825,23.6487698 C32.3154762,23.809881 32.3781746,23.975754 32.3781746,24.1467857 C32.3781746,24.5086905 32.1519841,24.8582937 31.7,25.1951984 C30.9011905,25.7928175 29.9781746,26.091627 28.9333333,26.091627 C27.8777778,26.091627 26.993254,25.7856746 26.2797619,25.1721825 C25.9325397,24.8705952 25.6460317,24.5055159 25.4202381,24.0785317 C25.1234127,23.5110714 24.975,22.9126587 24.975,22.284881 C24.975,21.4400397 25.2321429,20.6813095 25.7444444,20.0078968 C26.1861111,19.4249603 26.7496032,18.9900397 27.4329365,18.7035317 C27.9456349,18.4880556 28.5003968,18.3797222 29.0988095,18.3797222 C30.0543651,18.3797222 30.8646825,18.650754 31.5337302,19.1936111 C31.8706349,19.4654365 32.1420635,19.7868651 32.3480159,20.1590873 C32.5837302,20.5813095 32.7027778,20.9932143 32.7027778,21.3951984 C32.7027778,21.7221825 32.6349206,21.9896429 32.4992063,22.1979762 L32.4992063,22.1979762 Z M24.3825397,17.934881 L20.9214286,24.9376587 C20.7107143,25.3701984 20.5099206,25.6682143 20.3190476,25.8317063 C20.127381,25.9948016 19.8869048,26.0773413 19.5936508,26.0773413 C19.3535714,26.0773413 19.1365079,26.0237698 18.947619,25.9182143 C18.8,25.8380556 18.6869048,25.7436111 18.6039683,25.6352778 C18.5210317,25.5277381 18.4154762,25.3328968 18.2900794,25.0511508 L15.2079365,18.2586905 C15.0361111,17.8765476 14.881746,17.616627 14.7436508,17.4781349 C14.6055556,17.3404365 14.4083333,17.2491667 14.152381,17.2035317 C13.8496032,17.1479762 13.7,16.9618651 13.7,16.6451984 C13.7,16.2582937 13.9630952,15.959881 14.4916667,15.7519444 C15.0194444,15.5436111 15.775,15.4388492 16.7603175,15.4388492 C17.7857143,15.4388492 18.5396825,15.516627 19.022619,15.6729762 C19.5047619,15.8285317 19.7452381,16.0698016 19.7452381,16.3967857 C19.7452381,16.6082937 19.6150794,16.8035317 19.3535714,16.9840873 C19.152381,17.1201984 19.0519841,17.2491667 19.0519841,17.3686111 C19.0519841,17.4797222 19.0972222,17.6380556 19.1876984,17.8440079 L20.1301587,19.9698016 C20.2654762,20.2813095 20.418254,20.4380556 20.5888889,20.4380556 C20.7563492,20.4380556 20.9035714,20.3543254 21.0353175,20.189246 C21.1654762,20.0229762 21.3412698,19.6959921 21.5623016,19.2086905 C21.959127,18.3340873 22.190873,17.8174206 22.256746,17.6594841 C22.3210317,17.5011508 22.3543651,17.3793254 22.3543651,17.2936111 C22.3543651,17.1229762 22.2357143,16.9769444 22,16.8567063 C21.7388889,16.7205952 21.6079365,16.5479762 21.6079365,16.3368651 C21.6079365,15.7380556 22.4095238,15.4388492 24.0123016,15.4388492 C24.8115079,15.4388492 25.3757937,15.5031349 25.7055556,15.6305159 C26.0333333,15.759881 26.1992063,15.9789286 26.1992063,16.2904365 C26.1992063,16.6630556 25.9829365,16.8765476 25.5503968,16.9321032 C25.2436508,16.9670238 25.0460317,17.0170238 24.9551587,17.0828968 C24.7940476,17.198373 24.6027778,17.4825 24.3825397,17.934881 L24.3825397,17.934881 Z M94.4297619,11.8844841 L69.2853175,11.8844841 C68.5373016,9.19718254 66.6638889,6.63011905 63.6607143,4.54876984 C55.668254,-0.989722222 42.7095238,-0.989722222 34.718254,4.54876984 C31.715873,6.63011905 29.8404762,9.19718254 29.0936508,11.8844841 L5.38531746,11.8844841 C2.41111111,11.8844841 -1.13686838e-13,14.2955952 -1.13686838e-13,17.2701984 L-1.13686838e-13,25.1698016 C-1.13686838e-13,28.1448016 2.41111111,30.5555159 5.38531746,30.5555159 L94.4297619,30.5555159 C97.4039683,30.5555159 99.8154762,28.1448016 99.8154762,25.1698016 L99.8154762,17.2701984 C99.8154762,14.2955952 97.4039683,11.8844841 94.4297619,11.8844841 L94.4297619,11.8844841 Z" id="Fill-7" fill="#FFFFFF" mask="url(#mask-2)"></path>
                        </g>
                    </g>
                </g>
            </g>
        </g>
    </g>
</svg>