<?xml version="1.0" encoding="UTF-8"?>
<svg width="102px" height="74px" viewBox="0 0 102 74" version="1.1" xmlns="http://www.w3.org/2000/svg" xmlns:xlink="http://www.w3.org/1999/xlink">
    <!-- Generator: Sketch 46.2 (44496) - http://www.bohemiancoding.com/sketch -->
    <title>Page 1</title>
    <desc>Created with Sketch.</desc>
    <defs></defs>
    <g id="Welcome" stroke="none" stroke-width="1" fill="none" fill-rule="evenodd">
        <g id="desktop_VetMap-4" transform="translate(-484.000000, -3950.000000)" fill="#DB4A56">
            <g id="Page-1" transform="translate(484.000000, 3950.000000)">
                <path d="M97.3705209,67.7531436 C97.3705209,68.0969554 97.2239008,68.402896 96.968645,68.5907673 C96.7468155,68.7541337 96.4915597,68.7964604 96.2097147,68.7184901 C94.6675442,68.2885396 93.1641178,67.7657673 91.5725674,67.2125495 C91.0438233,67.0291337 90.5165984,66.8449752 89.9863349,66.6652723 L82.998707,64.2868069 C78.4717147,62.7444802 73.9447225,61.2058663 69.4146915,59.6739356 L69.4146915,5.54101485 C77.8814357,8.40883663 86.4218698,11.347203 94.7116062,14.2016584 L96.4186295,14.7897772 C97.1441333,15.0392822 97.3705209,15.2620545 97.3705209,16.1620545 L97.3705209,67.7531436 Z M38.8918698,67.8444802 L38.8918698,13.6870545 L39.1258543,13.6068564 C47.554614,10.7189851 56.2606605,7.7375495 64.8565519,4.85636139 L64.8565519,59.0204703 C64.8330016,59.027896 64.8064124,59.0301238 64.782862,59.0382921 C55.3232031,62.2343317 46.8351876,65.1214604 38.8918698,67.8444802 L38.8918698,67.8444802 Z M10.9383194,60.2368069 L5.69493953,58.4390347 C4.82433488,58.1397772 4.55844341,57.7632921 4.55844341,56.8283911 L4.55844341,5.91675743 C4.55844341,5.32121287 4.74304806,4.85116337 5.0643969,4.62913366 C5.38042791,4.40933168 5.86511008,4.39522277 6.4288,4.58829208 C15.7334822,7.78136139 25.036645,10.9818564 34.3337302,14.1986881 L34.3337302,68.2818564 C26.5400713,65.587797 18.7395752,62.912302 10.9383194,60.2368069 L10.9383194,60.2368069 Z M97.9334512,10.5875495 L96.2256682,9.99943069 C87.0440558,6.8375495 77.5494512,3.56725248 68.1870326,0.409084158 C66.9221488,-0.0171534653 65.3541488,-0.0208663366 64.096862,0.399430693 C55.2540713,3.36081683 46.2882109,6.43210396 37.6186295,9.40240099 L35.8637457,10.0016584 C26.5598233,6.78259901 17.2505829,3.57987624 7.93830388,0.384579208 C5.97070698,-0.291163366 3.96284651,-0.0683910891 2.42827287,0.993490099 C0.885342636,2.06279703 0.00030387597,3.85685644 0.00030387597,5.91675743 L0.00030387597,56.8283911 C0.00030387597,59.652401 1.48701705,61.7175 4.18543566,62.6427475 L9.42957519,64.4412624 C17.4184744,67.1806188 25.4073736,69.9199752 33.3901953,72.6808663 C35.1238078,73.2793812 36.7943659,73.2860644 38.496831,72.702401 C46.9461023,69.8011634 55.9978078,66.7202228 66.1632186,63.2858168 C71.2782109,65.012302 76.3878853,66.752896 81.4983194,68.4934901 L88.4897457,70.8734406 C89.008614,71.0501733 89.5267225,71.2306188 90.044831,71.4103218 C91.6341023,71.962797 93.2773116,72.5338366 94.9577457,73.0031436 C95.4606605,73.1434901 95.9711721,73.2125495 96.4756062,73.2125495 C97.6333736,73.2125495 98.7622729,72.8486881 99.712645,72.147698 C101.12035,71.1103218 101.927901,69.5093317 101.92866,67.7538861 L101.92866,16.1620545 C101.92866,13.4152723 100.547544,11.4875495 97.9334512,10.5875495 L97.9334512,10.5875495 Z" id="Fill-1"></path>
            </g>
        </g>
    </g>
</svg>