<?xml version="1.0" encoding="UTF-8"?>
<svg width="100px" height="100px" viewBox="0 0 100 100" version="1.1" xmlns="http://www.w3.org/2000/svg" xmlns:xlink="http://www.w3.org/1999/xlink">
    <!-- Generator: Sketch 44.1 (41455) - http://www.bohemiancoding.com/sketch -->
    <title>symbol_shipping</title>
    <desc>Created with Sketch.</desc>
    <defs>
        <polygon id="path-1" points="7.89244971e-15 99.9998 7.89244971e-15 0 100.0016 0 100.0016 99.9998"></polygon>
    </defs>
    <g id="icons" stroke="none" stroke-width="1" fill="none" fill-rule="evenodd">
        <g id="symbol_shipping">
            <g id="Page-1">
                <g id="Group-3">
                    <mask id="mask-2" fill="white">
                        <use xlink:href="#path-1"></use>
                    </mask>
                    <g id="Clip-2"></g>
                    <path d="M50.0006,96.4818 C24.3706,96.4818 3.5186,75.6298 3.5186,49.9998 C3.5186,24.3698 24.3706,3.5178 50.0006,3.5178 C75.6316,3.5178 96.4836,24.3698 96.4836,49.9998 C96.4836,75.6298 75.6316,96.4818 50.0006,96.4818 M50.0006,-0.0002 C22.4306,-0.0002 -0.0004,22.4298 -0.0004,49.9998 C-0.0004,77.5698 22.4306,99.9998 50.0006,99.9998 C77.5716,99.9998 100.0016,77.5698 100.0016,49.9998 C100.0016,22.4298 77.5716,-0.0002 50.0006,-0.0002" id="Fill-1" fill="#13A620" mask="url(#mask-2)"></path>
                </g>
                <path d="M83.03,61.1171 L77.954,61.1171 C77.197,58.6641 74.935,56.8661 72.237,56.8661 C69.539,56.8661 67.277,58.6641 66.52,61.1171 L42.691,61.1171 C41.934,58.6641 39.673,56.8661 36.974,56.8661 C34.276,56.8661 32.015,58.6641 31.257,61.1171 L23.194,61.1171 L23.194,55.3431 L54.272,55.3431 L54.272,40.5451 L57.29,40.5451 L57.29,50.9051 L70.062,50.9051 L83.03,54.8831 L83.03,61.1171 Z M72.237,65.3681 C70.863,65.3681 69.745,64.2501 69.745,62.8761 C69.745,61.5021 70.863,60.3841 72.237,60.3841 C73.611,60.3841 74.729,61.5021 74.729,62.8761 C74.729,64.2501 73.611,65.3681 72.237,65.3681 L72.237,65.3681 Z M36.974,65.3681 C35.6,65.3681 34.482,64.2501 34.482,62.8761 C34.482,61.5021 35.6,60.3841 36.974,60.3841 C38.349,60.3841 39.466,61.5021 39.466,62.8761 C39.466,64.2501 38.349,65.3681 36.974,65.3681 L36.974,65.3681 Z M23.194,36.9771 L50.754,36.9771 L50.754,37.0261 L50.754,40.5451 L50.754,51.8241 L23.194,51.8241 L23.194,36.9771 Z M67.69,47.3861 L60.808,47.3861 L60.808,40.5451 L64.85,40.5451 L67.69,47.3861 Z M71.632,47.7071 L67.2,37.0261 L54.272,37.0261 L54.272,33.4591 L19.676,33.4591 L19.676,51.8241 L19.676,55.3431 L19.676,64.6351 L31.257,64.6351 C32.015,67.0881 34.276,68.8861 36.974,68.8861 C39.673,68.8861 41.934,67.0881 42.691,64.6351 L66.52,64.6351 C67.277,67.0881 69.539,68.8861 72.237,68.8861 C74.935,68.8861 77.197,67.0881 77.954,64.6351 L86.548,64.6351 L86.548,52.2841 L71.632,47.7071 Z" id="Fill-4" fill="#13A620"></path>
            </g>
        </g>
    </g>
</svg>