<?xml version="1.0" encoding="UTF-8"?>
<svg width="174px" height="148px" viewBox="0 0 174 148" version="1.1" xmlns="http://www.w3.org/2000/svg" xmlns:xlink="http://www.w3.org/1999/xlink">
    <!-- Generator: Sketch 46.2 (44496) - http://www.bohemiancoding.com/sketch -->
    <title>Page 1</title>
    <desc>Created with Sketch.</desc>
    <defs>
        <polygon id="path-1" points="173.357015 147.090361 0 147.090361 0 0.25390598 173.357015 0.25390598"></polygon>
    </defs>
    <g id="Welcome" stroke="none" stroke-width="1" fill="none" fill-rule="evenodd">
        <g id="desktop_Shopping-guideline" transform="translate(-1005.000000, -5211.000000)">
            <g id="Page-1" transform="translate(1005.000000, 5211.000000)">
                <g id="Group-3" transform="translate(0.000000, 0.329786)">
                    <mask id="mask-2" fill="white">
                        <use xlink:href="#path-1"></use>
                    </mask>
                    <g id="Clip-2"></g>
                    <path d="M22.1577036,130.842188 L83.4330965,24.140972 L150.527898,130.842188 L22.1577036,130.842188 Z M172.109906,134.641438 L89.9943772,4.05263129 C88.4767782,1.63964894 85.7947139,0.203183153 82.9544691,0.255131733 C80.1037178,0.31233354 77.4916965,1.8591171 76.0721578,4.33163602 L1.07942145,134.920443 C-0.364632335,137.434404 -0.359379108,140.527387 1.09284636,143.036679 C2.54507183,145.545387 5.22480138,147.090419 8.12399908,147.090419 L165.232848,147.090419 C168.190415,147.090419 170.913921,145.482932 172.343966,142.894842 C173.774012,140.306168 173.684707,137.144893 172.109906,134.641438 L172.109906,134.641438 Z" id="Fill-1" fill="#231916" mask="url(#mask-2)"></path>
                </g>
                <path d="M76.5282547,60.0396587 L79.4513837,94.0887424 C79.7671611,97.4070309 81.1102361,98.9077028 84.4279409,98.9077028 C88.5359646,98.9077028 88.931124,95.5894143 89.0893045,94.0887424 L92.091232,60.0396587 C92.4863914,55.5364756 88.3783678,53.0873044 84.3485588,53.0873044 C79.7671611,53.0873044 76.1330952,55.7734545 76.5282547,60.0396587" id="Fill-4" fill="#231916"></path>
                <path d="M84.270169,102.225641 C79.6876038,102.30444 75.8959412,106.017887 75.8959412,110.599869 C75.8959412,115.260649 79.6876038,118.973513 84.270169,118.973513 C88.8521505,118.973513 92.6443968,115.260649 92.6443968,110.599869 C92.6443968,105.938505 88.8521505,102.146843 84.270169,102.225641" id="Fill-6" fill="#231916"></path>
            </g>
        </g>
    </g>
</svg>