<?xml version="1.0" encoding="UTF-8"?>
<svg width="45px" height="39px" viewBox="0 0 45 39" version="1.1" xmlns="http://www.w3.org/2000/svg" xmlns:xlink="http://www.w3.org/1999/xlink">
    <!-- Generator: Sketch 46.2 (44496) - http://www.bohemiancoding.com/sketch -->
    <title>Page 1 Copy</title>
    <desc>Created with Sketch.</desc>
    <defs>
        <polygon id="path-1" points="44.8242394 38.0325743 0 38.0325743 0 0.0656514675 44.8242394 0.0656514675"></polygon>
    </defs>
    <g id="Welcome" stroke="none" stroke-width="1" fill="none" fill-rule="evenodd">
        <g id="desktop_Shopping-guideline" transform="translate(-300.000000, -7244.000000)">
            <g id="Page-1-Copy" transform="translate(300.000000, 7244.734375)">
                <g id="Group-3" transform="translate(0.000000, 0.085271)">
                    <mask id="mask-2" fill="white">
                        <use xlink:href="#path-1"></use>
                    </mask>
                    <g id="Clip-2"></g>
                    <path d="M5.72923001,33.8313482 L21.5729666,6.24203589 L38.9214046,33.8313482 L5.72923001,33.8313482 Z M44.5017793,34.8137055 L23.2694911,1.04787288 C22.8770915,0.423957557 22.1836007,0.0525362663 21.4492098,0.0659684056 C20.7121023,0.0807588512 20.0367222,0.480704573 19.6696777,1.12001404 L0.279101745,34.8858466 C-0.0942815443,35.5358716 -0.092923238,36.3356121 0.282572972,36.9844297 C0.658069181,37.6330964 1.35095628,38.0325894 2.10059039,38.0325894 L42.7236056,38.0325894 C43.488332,38.0325894 44.1925383,37.6169477 44.5622994,36.9477555 C44.9320606,36.2784123 44.9089694,35.4610138 44.5017793,34.8137055 L44.5017793,34.8137055 Z" id="Fill-1" fill="#231916" mask="url(#mask-2)"></path>
                </g>
                <path d="M19.7876089,15.5242177 L20.5434308,24.3281549 C20.6250801,25.1861517 20.9723538,25.5741745 21.8301996,25.5741745 C22.8923951,25.5741745 22.9945699,24.7161777 23.03547,24.3281549 L23.8116665,15.5242177 C23.9138413,14.3598474 22.8516459,13.7265748 21.8096741,13.7265748 C20.6250801,13.7265748 19.6854341,14.4211221 19.7876089,15.5242177" id="Fill-4" fill="#231916"></path>
                <path d="M21.7894051,26.4320807 C20.6045093,26.4524553 19.6241141,27.4126269 19.6241141,28.5973718 C19.6241141,29.8024912 20.6045093,30.7625119 21.7894051,30.7625119 C22.97415,30.7625119 23.9546962,29.8024912 23.9546962,28.5973718 C23.9546962,27.3921014 22.97415,26.4117061 21.7894051,26.4320807" id="Fill-6" fill="#231916"></path>
            </g>
        </g>
    </g>
</svg>