<?xml version="1.0" encoding="UTF-8"?>
<svg width="132px" height="55px" viewBox="0 0 132 55" version="1.1" xmlns="http://www.w3.org/2000/svg" xmlns:xlink="http://www.w3.org/1999/xlink">
    <!-- Generator: Sketch 44.1 (41455) - http://www.bohemiancoding.com/sketch -->
    <title>youtube_white</title>
    <desc>Created with Sketch.</desc>
    <defs>
        <polygon id="path-1" points="0 0.9956 0 36.5086 18.4147 36.5086 18.4147 0.9956"></polygon>
        <polygon id="path-3" points="78.7997 1.42108547e-14 0.2477 1.42108547e-14 0.2477 54.9998 78.7997 54.9998 78.7997 0"></polygon>
    </defs>
    <g id="Welcome" stroke="none" stroke-width="1" fill="none" fill-rule="evenodd">
        <g id="desktop_main" transform="translate(-800.000000, -5033.000000)">
            <g id="footer" transform="translate(0.000000, 4993.000000)">
                <g id="youtube_white" transform="translate(800.000000, 40.000000)">
                    <g id="Page-1">
                        <path d="M49.1924,44.5089 L44.1944,44.5089 L44.1944,41.6149 C42.2994,43.7869 40.6934,44.8839 38.9424,44.8839 C37.4064,44.8839 36.3394,44.1589 35.8054,42.8499 C35.4804,42.0539 35.2504,40.8109 35.2504,38.9849 L35.2504,17.9399 L40.2484,17.9399 L40.2484,37.6689 L40.2484,39.5109 C40.3654,40.2489 40.6784,40.5189 41.3144,40.5189 C42.2704,40.5189 43.1364,39.6879 44.1944,38.1959 L44.1944,17.9399 L49.1924,17.9399 L49.1924,44.5089 Z" id="Fill-1" fill="#FFFFFF"></path>
                        <path d="M26.5691,36.6171 C26.8321,39.2481 26.0161,40.5531 24.4641,40.5531 C22.9121,40.5531 22.0971,39.2481 22.3601,36.6171 L22.3601,26.0951 C22.0971,23.4641 22.9121,22.2311 24.4651,22.2311 C26.0171,22.2311 26.8351,23.4641 26.5721,26.0951 L26.5691,36.6171 Z M31.5671,26.6211 C31.5671,23.7811 30.9971,21.6491 29.9891,20.3071 C28.6571,18.4901 26.5691,17.7461 24.4651,17.7461 C22.0821,17.7461 20.2701,18.4901 18.9401,20.3071 C17.9161,21.6491 17.3671,23.8041 17.3671,26.6441 L17.3621,36.0911 C17.3621,38.9141 17.8501,40.8651 18.8751,42.1941 C20.2041,44.0061 22.3601,44.9661 24.4651,44.9661 C26.5691,44.9661 28.7631,44.0061 30.0941,42.1941 C31.1021,40.8651 31.5671,38.9141 31.5671,36.0911 L31.5671,26.6211 Z" id="Fill-3" fill="#FFFFFF"></path>
                        <g id="Group-7" transform="translate(0.000000, 8.000000)">
                            <mask id="mask-2" fill="white">
                                <use xlink:href="#path-1"></use>
                            </mask>
                            <g id="Clip-6"></g>
                            <path d="M11.8377,22.0406 L11.8377,36.5086 L6.5767,36.5086 L6.5767,22.0406 C6.5767,22.0406 1.1247,4.3026 -0.0003,0.9956 L5.5247,0.9956 L9.2167,14.8526 L12.8897,0.9956 L18.4147,0.9956 L11.8377,22.0406 Z" id="Fill-5" fill="#FFFFFF" mask="url(#mask-2)"></path>
                        </g>
                        <path d="M100.6002,22.1656 C99.8162,22.1656 98.9182,22.5796 98.1212,23.3656 L98.1162,39.3186 C98.9122,40.1156 99.8162,40.5186 100.6002,40.5186 C101.9732,40.5186 102.5942,39.5106 102.5942,36.8806 L102.5942,25.5686 C102.5942,22.9376 101.9732,22.1656 100.6002,22.1656" id="Fill-8" fill="#FFFFFF"></path>
                        <path d="M120.2188,25.3274 C120.2188,22.8964 119.5908,22.1654 118.0118,22.1654 C116.4208,22.1654 115.7468,22.8364 115.7468,25.2944 L115.7468,28.2044 L120.2188,28.1994 L120.2188,25.3274 Z" id="Fill-10" fill="#FFFFFF"></path>
                        <g id="Group-14" transform="translate(53.000000, 0.000000)">
                            <mask id="mask-4" fill="white">
                                <use xlink:href="#path-3"></use>
                            </mask>
                            <g id="Clip-13"></g>
                            <path d="M65.0557,40.5188 C66.2277,40.5188 66.9117,39.8808 67.1837,38.6078 C67.2277,38.3488 67.2187,37.2128 67.2187,35.3018 L72.2167,35.3018 L72.2167,36.0468 C72.2167,37.5818 72.0907,38.6678 72.0477,39.1448 C71.8867,40.2008 71.5127,41.1558 70.9337,41.9988 C69.6167,43.9068 67.6617,44.8478 65.1737,44.8478 C62.6827,44.8478 60.7857,43.9518 59.4087,42.1548 C58.3977,40.8398 57.7487,38.8848 57.7487,36.0908 L57.7487,26.8838 C57.7487,24.0738 58.3387,21.9028 59.3507,20.5728 C60.7277,18.7738 62.6247,17.8218 65.0557,17.8218 C67.4447,17.8218 69.3417,18.7738 70.6757,20.5728 C71.6717,21.9028 72.2247,23.9578 72.2247,26.7668 L72.2257,32.1448 L62.7467,32.1448 L62.7467,36.8688 C62.7307,39.2968 63.4207,40.5188 65.0557,40.5188 L65.0557,40.5188 Z M54.5917,36.6168 C54.5917,39.0488 54.3837,40.7638 54.0657,41.8778 C53.4297,43.8328 52.0447,44.8478 50.1477,44.8478 C48.4547,44.8478 46.7197,43.8288 45.1287,41.8608 L45.1217,44.5088 L40.3867,44.5088 L40.3867,9.2588 L45.1217,9.2588 L45.1167,20.7508 C46.6547,18.8588 48.3957,17.7808 50.1477,17.7808 C52.0447,17.7808 53.3187,18.8758 53.9547,20.8448 C54.2727,21.9028 54.5917,23.6048 54.5917,26.0948 L54.5917,36.6168 Z M36.4407,44.5088 L31.4427,44.5088 L31.4427,41.6148 C29.5477,43.7868 27.9417,44.8838 26.1907,44.8838 C24.6547,44.8838 23.5877,44.1588 23.0537,42.8498 C22.7287,42.0538 22.4987,40.8108 22.4987,38.9848 L22.4987,18.2028 L27.4967,18.2028 L27.4967,37.6698 L27.4967,39.5108 C27.6137,40.2488 27.9267,40.5188 28.5627,40.5188 C29.5187,40.5188 30.3847,39.6878 31.4427,38.1958 L31.4427,18.2028 L36.4407,18.2028 L36.4407,44.5088 Z M17.5007,44.5088 L12.2387,44.5088 L12.2387,14.2568 L6.7147,14.2568 L6.7147,9.2638 L23.2877,9.2588 L23.2877,14.2568 L17.5007,14.2568 L17.5007,44.5088 Z M78.0147,11.8648 C78.0147,11.8648 77.2477,6.4768 74.8927,4.1028 C71.9057,0.9888 68.5567,0.9728 67.0217,0.7908 C56.0297,-0.0002 39.5407,-0.0002 39.5407,-0.0002 L39.5067,-0.0002 C39.5067,-0.0002 23.0177,-0.0002 12.0257,0.7908 C10.4897,0.9728 7.1427,0.9888 4.1547,4.1028 C1.7997,6.4768 1.0327,11.8648 1.0327,11.8648 C1.0327,11.8648 0.2477,18.1928 0.2477,24.5218 L0.2477,30.4538 C0.2477,36.7818 1.0327,43.1098 1.0327,43.1098 C1.0327,43.1098 1.7997,48.4988 4.1547,50.8718 C7.1427,53.9868 11.0677,53.8878 12.8157,54.2138 C19.1007,54.8148 39.5237,54.9998 39.5237,54.9998 C39.5237,54.9998 56.0297,54.9758 67.0217,54.1848 C68.5567,54.0018 71.9057,53.9868 74.8927,50.8718 C77.2477,48.4988 78.0147,43.1098 78.0147,43.1098 C78.0147,43.1098 78.7997,36.7818 78.7997,30.4538 L78.7997,24.5218 C78.7997,18.1928 78.0147,11.8648 78.0147,11.8648 L78.0147,11.8648 Z" id="Fill-12" fill="#FFFFFF" mask="url(#mask-4)"></path>
                        </g>
                    </g>
                </g>
            </g>
        </g>
    </g>
</svg>