<?xml version="1.0" encoding="UTF-8"?>
<svg width="114px" height="50px" viewBox="0 0 114 50" version="1.1" xmlns="http://www.w3.org/2000/svg" xmlns:xlink="http://www.w3.org/1999/xlink">
    <!-- Generator: Sketch 46.2 (44496) - http://www.bohemiancoding.com/sketch -->
    <title>Group 10</title>
    <desc>Created with Sketch.</desc>
    <defs></defs>
    <g id="Welcome" stroke="none" stroke-width="1" fill="none" fill-rule="evenodd">
        <g id="desktop_VetMap-4" transform="translate(-606.000000, -3199.000000)" fill="#7ED321">
            <g id="Group-10" transform="translate(606.000000, 3199.000000)">
                <path d="M64.642,33.014 C68.296,33.014 70.384,36.02 70.384,39.98 C70.384,44.768 67.81,47.198 64.462,47.198 C60.952,47.198 58.702,44.354 58.702,40.196 C58.702,35.858 61.114,33.014 64.642,33.014 Z M64.57,34.724 C62.032,34.724 60.898,37.442 60.898,40.142 C60.898,42.932 62.158,45.488 64.534,45.488 C66.946,45.488 68.188,42.986 68.188,40.052 C68.188,37.424 67.036,34.724 64.57,34.724 Z M80.716,33.23 L71.194,33.23 L71.194,35.012 L74.902,35.012 L74.902,47 L76.99,47 L76.99,35.012 L80.716,35.012 L80.716,33.23 Z M92.056,33.212 L89.968,33.212 L89.968,38.9 L84.352,38.9 L84.352,33.212 L82.264,33.212 L82.264,47 L84.352,47 L84.352,40.736 L89.968,40.736 L89.968,47 L92.056,47 L92.056,33.212 Z M102.424,45.254 L97.006,45.254 L97.006,40.682 L101.83,40.682 L101.83,38.954 L97.006,38.954 L97.006,34.976 L102.118,34.976 L102.118,33.23 L94.918,33.23 L94.918,47 L102.424,47 L102.424,45.254 Z M110.452,40.412 L110.452,40.448 C111.478,40.826 112.054,41.798 112.378,43.256 C112.792,45.056 113.134,46.478 113.404,47 L111.244,47 C111.046,46.604 110.722,45.398 110.38,43.706 C110.002,41.87 109.336,41.168 107.878,41.168 L106.618,41.168 L106.618,47 L104.548,47 L104.548,33.41 C105.43,33.248 106.654,33.122 107.896,33.122 C109.696,33.122 110.956,33.446 111.82,34.22 C112.54,34.85 112.918,35.804 112.918,36.92 C112.918,38.684 111.838,39.89 110.452,40.412 Z M106.618,39.602 L108.022,39.602 C109.75,39.602 110.83,38.612 110.83,37.136 C110.83,35.354 109.57,34.742 108.076,34.742 C107.374,34.742 106.87,34.796 106.618,34.868 L106.618,39.602 Z" id="OTHER"></path>
                <path d="M23.439134,35.3160288 C23.7247856,35.2909656 23.9654608,35.289249 24.197896,35.2446159 C24.4598577,35.1941462 24.8220722,35.1883096 24.9539114,35.0183607 C25.4798948,34.3385648 25.9334353,33.602806 26.4580455,32.8224142 C25.4270218,33.6742189 24.4656944,34.4680007 23.439134,35.3160288 M47.7167714,3.6619202 C47.6817516,4.0907409 48.0559826,4.53329484 48.4841166,4.56900129 C48.9606604,4.60917104 49.4406374,4.22670006 49.4787472,3.77590617 C49.5192603,3.29592912 49.174899,2.87878169 48.7024753,2.83552195 C48.266788,2.7953522 47.7524778,3.22657622 47.7167714,3.6619202 M58.0791943,2.71329604 C56.4006479,4.45089535 54.7221016,6.18815133 53.0713651,7.89725415 C53.6519382,8.72880237 54.2905342,9.52979411 54.8051877,10.4039154 C56.0889032,12.584412 56.6931661,14.9863572 56.8995082,17.4885552 C57.1830998,20.9242707 56.8617418,24.2971566 55.7208521,27.5687598 C54.6191022,30.7287804 53.0167754,33.5828928 50.5344907,35.878062 C48.9040107,37.3852861 47.0483055,38.4897826 44.8073826,38.7970641 C43.4718241,38.980403 42.1479389,38.9117367 40.8800167,38.38129 C40.6891246,38.3012938 40.4927391,38.2336575 40.2544673,38.1433614 C39.962979,39.2145548 39.6951807,40.2452352 39.4006025,41.2683622 C38.8835457,43.0650145 38.296106,44.8372903 37.362245,46.4694869 C37.1219132,46.889381 36.8455316,47.3051551 36.5094103,47.6477996 C36.3082182,47.8527684 35.9254039,48.0501838 35.6857587,47.9931908 C35.4859399,47.9454678 35.260028,47.5276337 35.2469814,47.2639553 C35.2002883,46.3105245 35.1886151,45.3491971 35.2593413,44.3978263 C35.3228576,43.5439615 35.5123764,42.6993667 35.6634422,41.7425026 C35.3750439,42.3089991 35.1525653,42.7999628 34.8830503,43.2634599 C34.3368103,44.2041875 33.7874804,45.1445717 33.1918007,46.0543994 C32.975502,46.3850274 32.712167,46.9020842 32.2586264,46.7321353 C32.0790642,46.664499 32.004218,45.9970631 32.0742576,45.6406853 C32.3485792,44.2426406 32.6503674,42.8456258 33.0373016,41.4753909 C33.3840662,40.2486685 33.8561466,39.0573091 34.2660841,37.8707564 C33.4901555,38.9628931 32.7307069,40.0917661 31.9053386,41.1705128 C31.4136883,41.8132289 30.8214419,42.3797254 30.2676487,42.9736884 C30.169456,43.0790911 30.04826,43.1858671 29.9167642,43.2311868 C29.7155721,43.2998531 29.4367871,43.4114357 29.3015146,43.3273195 C29.1559422,43.2370234 29.0495095,42.9273387 29.080066,42.7381632 C29.1834087,42.1012838 29.3073513,41.4595977 29.51232,40.8494981 C29.7959116,40.0059333 30.1598427,39.189835 30.5258338,38.270394 C29.6087961,38.6044553 28.5911623,38.4437763 27.945013,39.3999537 C27.5608253,39.9678235 26.9884922,40.4117508 26.4831086,40.8927579 C26.3347895,41.0342103 26.1349708,41.1341197 25.9427053,41.2137725 C25.4925981,41.4005447 25.2522662,41.2439857 25.2309797,40.764352 C25.2234264,40.5861631 25.2340696,40.4062575 25.2471162,40.2280686 C25.2584462,40.0715096 25.285226,39.9163239 25.3185291,39.6560788 C23.8861513,40.2088421 22.5162597,40.7059857 21.1707446,41.2621823 C15.4371132,43.6328843 9.98467012,46.5470797 4.75127231,49.8712126 C4.30974836,50.1517142 4.06048989,50.0576415 3.7504618,49.76169 C2.76578785,48.8213058 2.12753511,47.6553529 1.59228174,46.4276005 C0.744596953,44.4826291 0.0692644404,42.4895914 0.00471817078,40.3393079 C-0.0282416265,39.2392747 0.106000881,38.1697979 0.581171292,37.1590308 C0.726400398,36.8496894 0.913172583,36.7181935 1.28294031,36.6996537 C5.35965523,36.4964016 9.43568349,36.2794162 13.5103384,36.0401144 C15.9610367,35.8962586 18.4093316,35.7108597 20.8579699,35.5299242 C21.0220822,35.5179076 21.2699674,35.4286415 21.3231837,35.3067589 C21.9707064,33.828718 23.0570064,32.6806184 24.1357531,31.5308021 C24.8035323,30.8190765 25.5197212,30.1537006 26.1717072,29.4066118 C25.7531865,29.6448837 25.3490856,29.9143987 24.913055,30.1152475 C24.0159305,30.5282749 23.1139994,30.9388991 22.1873484,31.2763937 C21.8941435,31.3828264 21.5151059,31.2533905 21.1755513,31.2317606 C21.3073905,30.9344358 21.3661001,30.5591748 21.5848021,30.354206 C22.3411608,29.6448837 23.1194927,28.9489513 23.9541309,28.3357618 C24.7104895,27.7802518 25.556801,27.3476545 26.3502394,26.8405543 C26.4951252,26.7478549 26.6544309,26.568636 26.6770908,26.4110469 C27.1031648,23.423722 28.5722791,20.9459006 30.4355377,18.6603446 C31.3783252,17.5043484 32.4876284,16.5344377 33.7356374,15.7142194 C34.4271064,15.2596489 35.1384887,14.8091983 35.7327951,14.2430451 C36.063423,13.9282104 36.3023816,13.3963903 36.3604045,12.9346098 C36.985954,7.95184382 39.1825872,3.88302551 43.5641802,1.32211793 C46.5075588,-0.39831482 49.7118691,-0.397971489 52.8296599,1.08041275 C53.3391634,1.32211793 53.727471,1.81239491 54.1899382,2.16396609 C54.3516472,2.28653533 54.5634826,2.39880464 54.7591814,2.4115079 C55.8530346,2.4818908 56.9486046,2.52034389 58.0438312,2.56944026 C58.0555044,2.61750663 58.0671777,2.66522967 58.0791943,2.71329604" id="Fill-1"></path>
            </g>
        </g>
    </g>
</svg>