<?xml version="1.0" encoding="UTF-8"?>
<svg width="13px" height="14px" viewBox="0 0 13 14" version="1.1" xmlns="http://www.w3.org/2000/svg" xmlns:xlink="http://www.w3.org/1999/xlink">
    <!-- Generator: Sketch 47 (45396) - http://www.bohemiancoding.com/sketch -->
    <title>✓</title>
    <desc>Created with Sketch.</desc>
    <defs></defs>
    <g id="icons" stroke="none" stroke-width="1" fill="none" fill-rule="evenodd">
        <g id="checkbox-ticked" transform="translate(-3.000000, -6.000000)" fill="#FFFFFF">
            <g id="checkbox">
                <path d="M7.20996094,16.5917969 C7.74902613,15.361322 8.32763363,14.1850642 8.94580078,13.0629883 C9.56396793,11.9409124 10.2011686,10.9052782 10.8574219,9.95605469 C11.6308632,8.84276787 12.2402321,8.04004152 12.6855469,7.54785156 C12.9726577,7.23144373 13.2421862,6.97070415 13.4941406,6.765625 C13.6406257,6.64843691 13.8720687,6.56054717 14.1884766,6.50195312 C14.9560585,6.36132742 15.492186,6.29101562 15.796875,6.29101562 C15.9316413,6.29101562 15.9990234,6.33789016 15.9990234,6.43164062 C15.9990234,6.51953169 15.9316413,6.62499938 15.796875,6.74804688 C14.6249941,7.79102084 13.3960025,9.28221687 12.1098633,11.2216797 C10.823724,13.1611425 9.73828567,15.2206922 8.85351562,17.4003906 C8.51952958,18.2148478 8.28662175,18.7143545 8.15478516,18.8989258 C8.02294856,19.083497 7.61133158,19.1757812 6.91992188,19.1757812 C6.46874774,19.1757812 6.18603573,19.1318364 6.07177734,19.0439453 C5.95751896,18.9560542 5.75097806,18.6777367 5.45214844,18.2089844 C4.93652086,17.4296836 4.38281546,16.7265656 3.79101562,16.0996094 C3.4804672,15.7714827 3.32519531,15.5195321 3.32519531,15.34375 C3.32519531,15.097655 3.49804515,14.8559582 3.84375,14.6186523 C4.18945485,14.3813465 4.4736317,14.2626953 4.69628906,14.2626953 C5.00683749,14.2626953 5.38036891,14.43701 5.81689453,14.7856445 C6.25342015,15.1342791 6.71777098,15.7363238 7.20996094,16.5917969 Z" id="✓"></path>
            </g>
        </g>
    </g>
</svg>