<?xml version="1.0" encoding="UTF-8"?>
<svg width="183px" height="153px" viewBox="0 0 183 153" version="1.1" xmlns="http://www.w3.org/2000/svg" xmlns:xlink="http://www.w3.org/1999/xlink">
    <!-- Generator: Sketch 46.2 (44496) - http://www.bohemiancoding.com/sketch -->
    <title>Page 1</title>
    <desc>Created with Sketch.</desc>
    <defs>
        <polygon id="path-1" points="182.060791 0.00149505497 0.000332448166 0.00149505497 0.000332448166 152.688469 182.060791 152.688469"></polygon>
    </defs>
    <g id="Welcome" stroke="none" stroke-width="1" fill="none" fill-rule="evenodd">
        <g id="desktop_Shopping-guideline" transform="translate(-1148.000000, -4682.000000)">
            <g id="Page-1" transform="translate(1148.000000, 4682.000000)">
                <mask id="mask-2" fill="white">
                    <use xlink:href="#path-1"></use>
                </mask>
                <g id="Clip-2"></g>
                <path d="M0.0143525277,150.562501 C-0.120202419,151.734624 0.728988802,152.688469 1.90709212,152.688469 L7.73481638,152.688469 C8.90992958,152.688469 9.98038894,151.734624 10.117934,150.562501 L11.8671483,135.384703 C12.0017033,134.21557 11.1495219,133.258734 9.97739883,133.258734 L4.14967457,133.258734 C2.97157125,133.258734 1.9011119,134.21557 1.76356684,135.384703 L0.0143525277,150.562501 Z M3.80282181,117.710163 C3.67125698,118.876306 4.5204482,119.833141 5.69855151,119.833141 L15.4104286,119.833141 C16.5855418,119.833141 17.4377231,120.789976 17.3031682,121.956119 L14.0977703,149.752181 C13.9632154,150.918324 14.8124066,151.872169 15.9905099,151.872169 L38.1352641,151.872169 C39.3133674,151.872169 40.3838267,150.918324 40.5183817,149.752181 L46.7736917,95.5355074 C46.9082466,94.3663745 46.0560653,93.4125294 44.877962,93.4125294 L8.74547353,93.4125294 C7.56737022,93.4125294 6.49691086,94.3663745 6.36235592,95.5355074 L3.80282181,117.710163 Z M148.709529,47.8013925 C148.574974,48.9675353 147.504515,49.9273606 146.329402,49.9273606 L130.999108,49.9273606 C129.823995,49.9273606 128.750546,50.8812057 128.615991,52.0503387 L124.065043,91.5108195 C123.930488,92.6799524 122.857039,93.6397777 121.678936,93.6397777 L114.254493,93.6397777 C113.079379,93.6397777 112.224208,92.6799524 112.361753,91.5108195 L112.792329,87.7642117 C112.926884,86.5920886 112.074703,85.6382436 110.896599,85.6382436 L105.074855,85.6382436 C103.896752,85.6382436 102.826292,86.5920886 102.688747,87.7642117 L102.258172,91.5108195 C102.123617,92.6799524 101.050167,93.6397777 99.8720639,93.6397777 L56.7277676,93.6397777 C55.5526544,93.6397777 54.4911654,94.5936228 54.3685709,95.7657459 L51.8209972,120.117201 C51.7013928,121.289324 52.5625445,122.246159 53.7406478,122.246159 L89.5442242,122.246159 C90.7193374,122.246159 91.553578,123.200005 91.3951022,124.363157 L89.9269582,135.169415 C89.7714725,136.332567 90.599733,137.289403 91.7778363,137.289403 L109.00386,137.289403 C110.178973,137.289403 111.252422,136.329577 111.386977,135.163434 L112.373714,126.6177 C112.508268,125.451557 113.578728,124.494722 114.756831,124.494722 L143.165866,124.494722 C144.340979,124.494722 145.19615,125.451557 145.058605,126.6177 L144.562247,130.920468 C144.427692,132.086611 145.279873,133.043446 146.454987,133.043446 L152.282711,133.043446 C153.454834,133.043446 154.531273,132.086611 154.665828,130.920468 L164.530201,45.4093045 C164.664756,44.2401715 163.812575,43.2863265 162.637461,43.2863265 L151.370727,43.2863265 C150.195614,43.2863265 149.122165,44.2401715 148.98761,45.4093045 L148.709529,47.8013925 Z M48.2896774,149.752181 C48.1581126,150.918324 49.0073038,151.872169 50.182417,151.872169 L78.82468,151.872169 C79.9997933,151.872169 81.0732427,150.918324 81.2077977,149.752181 L83.2051911,132.418513 C83.3427362,131.24938 82.4905548,130.292545 81.3124515,130.292545 L52.6701885,130.292545 C51.4950753,130.292545 50.4246159,131.24938 50.2870708,132.418513 L48.2896774,149.752181 Z M136.058374,-0.00149505497 C134.880271,-0.00149505497 133.809812,0.955340124 133.672267,2.121483 L130.335304,31.0597669 C130.200749,32.2288999 130.042273,33.182745 129.985461,33.182745 C129.925659,33.182745 129.767183,34.1365901 129.635618,35.305723 L129.228963,38.8310627 C129.091418,39.9972055 129.943599,40.9540407 131.121703,40.9540407 L139.278723,40.9540407 C140.453836,40.9540407 141.524295,39.9972055 141.65885,38.8310627 L141.862178,37.0938088 C141.993743,35.9246758 143.067192,34.9708307 144.245295,34.9708307 L176.119867,34.9708307 C177.29797,34.9708307 178.36843,34.0110054 178.502985,32.8448626 L182.046265,2.121483 C182.18381,0.955340124 181.328639,-0.00149505497 180.156516,-0.00149505497 L136.058374,-0.00149505497 Z" id="Fill-1" fill="#E50113" mask="url(#mask-2)"></path>
            </g>
        </g>
    </g>
</svg>