<?xml version="1.0" encoding="UTF-8"?>
<svg width="47px" height="47px" viewBox="0 0 47 47" version="1.1" xmlns="http://www.w3.org/2000/svg" xmlns:xlink="http://www.w3.org/1999/xlink">
    <!-- Generator: Sketch 46.2 (44496) - http://www.bohemiancoding.com/sketch -->
    <title>Group 3</title>
    <desc>Created with Sketch.</desc>
    <defs>
        <polygon id="path-1" points="0 46.4415266 0 0.167249394 46.3075354 0.167249394 46.3075354 46.4415266"></polygon>
    </defs>
    <g id="Welcome" stroke="none" stroke-width="1" fill="none" fill-rule="evenodd">
        <g id="desktop_product_VOICE" transform="translate(-347.000000, -5587.000000)">
            <g id="Page-1" transform="translate(347.000000, 5587.000000)">
                <g id="Group-3" transform="translate(0.000000, 0.249645)">
                    <mask id="mask-2" fill="white">
                        <use xlink:href="#path-1"></use>
                    </mask>
                    <g id="Clip-2"></g>
                    <path d="M38.599393,0.167249394 L7.7138938,0.167249394 C3.44659616,0.167249394 -8.33537971e-05,3.60851091 -8.33537971e-05,7.88622777 L-8.33537971e-05,38.7346345 C-8.33537971e-05,42.9902626 3.44659616,46.4415266 7.7138938,46.4415266 L22.9226276,46.4415266 L22.9226276,29.1422796 L17.0824438,29.1422796 L17.0824438,21.9013352 L22.9226276,21.9013352 L22.9226276,18.2487718 C22.9226276,13.0270732 26.8369219,8.76977802 31.6676912,8.76977802 L37.497039,8.76977802 L37.497039,15.996969 L31.6676912,15.996969 C30.9787721,15.996969 30.2073327,16.9346992 30.2073327,18.1829223 L30.2073327,21.9013352 L37.497039,21.9013352 L37.497039,29.1422796 L30.2073327,29.1422796 L30.2073327,46.4415266 L38.599393,46.4415266 C42.8550211,46.4415266 46.3075354,42.9902626 46.3075354,38.7346345 L46.3075354,7.88622777 C46.3075354,3.60851091 42.8550211,0.167249394 38.599393,0.167249394" id="Fill-1" fill="#231916" mask="url(#mask-2)"></path>
                </g>
            </g>
        </g>
    </g>
</svg>