<?xml version="1.0" encoding="UTF-8"?>
<svg width="40px" height="40px" viewBox="0 0 40 40" version="1.1" xmlns="http://www.w3.org/2000/svg" xmlns:xlink="http://www.w3.org/1999/xlink">
    <!-- Generator: Sketch 46.1 (44463) - http://www.bohemiancoding.com/sketch -->
    <title>Group</title>
    <desc>Created with Sketch.</desc>
    <defs></defs>
    <g id="Welcome" stroke="none" stroke-width="1" fill="none" fill-rule="evenodd">
        <g id="desktop_product_TOP" transform="translate(-605.000000, -2026.000000)">
            <g id="Group-6" transform="translate(576.000000, 2016.000000)">
                <g id="Group" transform="translate(30.000000, 11.000000)">
                    <path d="M26.6824067,17.5997113 C23.5949346,15.4474867 20.4974562,13.3093555 17.4043467,11.1651642 C16.772956,10.7274188 16.1092912,10.6304552 15.4203989,10.9923774 C14.7278423,11.3564135 14.4545685,11.957785 14.4596422,12.7320841 C14.4735948,14.8562626 14.464434,16.9805821 14.464434,19.1047606 C14.464434,21.264173 14.4637293,23.4235854 14.4659843,25.5829977 C14.4661252,25.7343624 14.4682392,25.890096 14.5023456,26.0361051 C14.7912632,27.2759139 16.1643969,27.8502257 17.2364926,27.162179 C17.9662562,26.6937097 18.6695239,26.1840873 19.3829389,25.6905314 C21.8027999,24.0159369 24.2235066,22.3423289 26.6406898,20.6637881 C27.5034964,20.0645308 27.7666228,19.0836203 27.2719395,18.2363166 C27.129031,17.9915118 26.9153729,17.7620689 26.6824067,17.5997113" id="Fill-4" fill="#FFFFFF"></path>
                    <circle id="Oval" stroke="#FFFFFF" stroke-width="3" cx="19.0156078" cy="19.0156078" r="18.216452"></circle>
                </g>
            </g>
        </g>
    </g>
</svg>