<?xml version="1.0" encoding="UTF-8"?>
<svg width="28px" height="28px" viewBox="0 0 28 28" version="1.1" xmlns="http://www.w3.org/2000/svg" xmlns:xlink="http://www.w3.org/1999/xlink">
    <!-- Generator: Sketch 44.1 (41455) - http://www.bohemiancoding.com/sketch -->
    <title>icon_shipping</title>
    <desc>Created with Sketch.</desc>
    <defs>
        <polygon id="path-1" points="0.0004 28 28 28 28 0.0003 0.0004 0.0003"></polygon>
    </defs>
    <g id="icons" stroke="none" stroke-width="1" fill="none" fill-rule="evenodd">
        <g id="icon_shipping">
            <g id="Page-1">
                <path d="M10.2198,17.1836 C9.9148,17.1836 9.6668,17.4316 9.6668,17.7366 C9.6668,18.0416 9.9148,18.2896 10.2198,18.2896 C10.5248,18.2896 10.7728,18.0416 10.7728,17.7366 C10.7728,17.4316 10.5248,17.1836 10.2198,17.1836" id="Fill-1" fill="#13A620"></path>
                <polygon id="Fill-3" fill="#13A620" points="6.391 14.3591 14.049 14.3591 14.049 11.4261 14.049 10.3911 6.391 10.3911"></polygon>
                <polygon id="Fill-5" fill="#13A620" points="17.3067 11.4262 17.3067 13.0712 18.8787 13.0712 18.1957 11.4262"></polygon>
                <g id="Group-9">
                    <mask id="mask-2" fill="white">
                        <use xlink:href="#path-1"></use>
                    </mask>
                    <g id="Clip-8"></g>
                    <path d="M22.2404,18.4173 C21.9654,19.1373 21.2684,19.6513 20.4534,19.6513 C19.6374,19.6513 18.9414,19.1373 18.6664,18.4173 L12.0074,18.4173 C11.7314,19.1373 11.0354,19.6513 10.2194,19.6513 C9.4044,19.6513 8.7084,19.1373 8.4324,18.4173 L5.0294,18.4173 L5.0294,15.7203 L5.0294,14.3593 L5.0294,9.0293 L15.4104,9.0293 L15.4104,10.0643 L19.1044,10.0643 L20.4044,13.1953 L24.7764,14.5363 L24.7764,18.4173 L22.2404,18.4173 Z M14.0004,0.0003 C6.2684,0.0003 0.0004,6.2683 0.0004,14.0003 C0.0004,21.7323 6.2684,28.0003 14.0004,28.0003 C21.7324,28.0003 28.0004,21.7323 28.0004,14.0003 C28.0004,6.2683 21.7324,0.0003 14.0004,0.0003 L14.0004,0.0003 Z" id="Fill-7" fill="#13A620" mask="url(#mask-2)"></path>
                </g>
                <path d="M20.4532,17.1836 C20.1482,17.1836 19.9002,17.4316 19.9002,17.7366 C19.9002,18.0416 20.1482,18.2896 20.4532,18.2896 C20.7582,18.2896 21.0062,18.0416 21.0062,17.7366 C21.0062,17.4316 20.7582,17.1836 20.4532,17.1836" id="Fill-10" fill="#13A620"></path>
            </g>
        </g>
    </g>
</svg>