<?xml version="1.0" encoding="UTF-8"?>
<svg width="15px" height="17px" viewBox="0 0 15 17" version="1.1" xmlns="http://www.w3.org/2000/svg" xmlns:xlink="http://www.w3.org/1999/xlink">
    <!-- Generator: Sketch 44.1 (41455) - http://www.bohemiancoding.com/sketch -->
    <title>icon_login_mobile</title>
    <desc>Created with Sketch.</desc>
    <defs>
        <polygon id="path-1" points="7.41917169 6.14457831 14.838253 6.14457831 14.838253 0.0663253012 9.03614458e-05 0.0663253012 9.03614458e-05 6.14457831 7.41917169 6.14457831"></polygon>
    </defs>
    <g id="Welcome" stroke="none" stroke-width="1" fill="none" fill-rule="evenodd">
        <g id="mobile_main" transform="translate(-263.000000, -10.000000)">
            <g id="nav">
                <g id="login" transform="translate(250.000000, 10.000000)">
                    <g id="icon_login_mobile" transform="translate(13.000000, 0.000000)">
                        <g id="Page-1">
                            <g id="Group-3" transform="translate(0.000000, 9.866512)">
                                <mask id="mask-2" fill="white">
                                    <use xlink:href="#path-1"></use>
                                </mask>
                                <g id="Clip-2"></g>
                                <path d="M14.8383434,6.14457831 L9.03614458e-05,6.14457831 L9.03614458e-05,5.51204819 C9.03614458e-05,2.87186747 0.558524096,2.21493976 1.54545181,1.28114458 C1.8761747,0.968313253 2.25099398,0.61373494 2.66575301,0.0663253012 L3.67400602,0.83060241 C3.1961747,1.46096386 2.76298193,1.87084337 2.41490964,2.20012048 C1.70701807,2.8696988 1.34430723,3.21289157 1.27671687,4.87951807 L13.5617169,4.87951807 C13.4941265,3.21289157 13.1312349,2.8696988 12.4235241,2.20012048 C12.0752711,1.87084337 11.6420783,1.46096386 11.164247,0.83060241 L12.1726807,0.0663253012 C12.5874398,0.61373494 12.962259,0.968313253 13.2928012,1.28114458 C14.2799096,2.21493976 14.8383434,2.87186747 14.8383434,5.51204819 L14.8383434,6.14457831 Z" id="Fill-1" fill="#FFFFFF" mask="url(#mask-2)"></path>
                            </g>
                            <path d="M7.41916265,1.26506024 C5.27542771,1.26506024 3.53127108,3.00903614 3.53127108,5.15295181 C3.53127108,7.29668675 5.27542771,9.04066265 7.41916265,9.04066265 C9.56289759,9.04066265 11.3070542,7.29668675 11.3070542,5.15295181 C11.3070542,3.00903614 9.56289759,1.26506024 7.41916265,1.26506024 M7.41916265,10.3057229 C4.57783735,10.3057229 2.26621084,7.99427711 2.26621084,5.15295181 C2.26621084,2.31162651 4.57783735,0 7.41916265,0 C10.260488,0 12.5721145,2.31162651 12.5721145,5.15295181 C12.5721145,7.99427711 10.260488,10.3057229 7.41916265,10.3057229" id="Fill-4" fill="#FFFFFF"></path>
                        </g>
                    </g>
                </g>
            </g>
        </g>
    </g>
</svg>