<?xml version="1.0" encoding="UTF-8"?>
<svg width="24px" height="22px" viewBox="0 0 24 22" version="1.1" xmlns="http://www.w3.org/2000/svg" xmlns:xlink="http://www.w3.org/1999/xlink">
    <!-- Generator: Sketch 44.1 (41455) - http://www.bohemiancoding.com/sketch -->
    <title>icon_pill</title>
    <desc>Created with Sketch.</desc>
    <defs>
        <polygon id="path-1" points="24 21.9732035 24 9.30787823e-05 1.75701356e-05 9.30787823e-05 1.75701356e-05 21.9732035"></polygon>
    </defs>
    <g id="icons" stroke="none" stroke-width="1" fill="none" fill-rule="evenodd">
        <g id="icon_pill">
            <g id="Page-1">
                <mask id="mask-2" fill="white">
                    <use xlink:href="#path-1"></use>
                </mask>
                <g id="Clip-2"></g>
                <path d="M3.23997387,13.0908345 L8.93390222,8.17952414 L14.8974354,13.9458 L8.86709053,19.1598 C7.13077251,20.6565586 4.46695098,20.5116621 2.91613366,18.8366276 C2.91534764,18.835869 2.91534764,18.835869 2.91456162,18.8351103 C1.36688838,17.1600759 1.51230207,14.5929034 3.23997387,13.0908345 L3.23997387,13.0908345 Z M15.0750759,2.64386897 L15.0758619,2.64462759 C16.8404767,1.12662759 19.5459573,1.27228276 21.1242853,2.97311034 L20.1566947,3.81442069 C20.1566947,3.81442069 19.8760856,4.03062759 19.8760856,4.02986897 C18.7324266,3.05276552 17.289294,2.98145517 16.1157663,3.80152414 L15.0758619,2.64462759 C15.0735039,2.64690345 15.0703598,2.64917931 15.0672157,2.65145517 L15.0750759,2.64386897 Z M1.54767297,20.0253862 C3.78232762,22.4332483 7.61653282,22.6365586 10.1113601,20.4798 L10.1003558,20.4904207 L21.981833,10.2133862 C24.4766603,8.05586897 24.6873136,4.35607586 22.4526589,1.94821379 C20.2180043,-0.459648276 16.3837991,-0.663717241 13.8889718,1.4938 L2.0184989,11.7602138 C-0.476328344,13.9169724 -0.687767704,17.6175241 1.54767297,20.0253862 L1.54767297,20.0253862 Z" id="Fill-1" fill="#333333" mask="url(#mask-2)"></path>
            </g>
        </g>
    </g>
</svg>