<?xml version="1.0" encoding="UTF-8"?>
<svg width="45px" height="75px" viewBox="0 0 45 75" version="1.1" xmlns="http://www.w3.org/2000/svg" xmlns:xlink="http://www.w3.org/1999/xlink">
    <!-- Generator: Sketch 46.2 (44496) - http://www.bohemiancoding.com/sketch -->
    <title>Group 5</title>
    <desc>Created with Sketch.</desc>
    <defs></defs>
    <g id="Welcome" stroke="none" stroke-width="1" fill="none" fill-rule="evenodd">
        <g id="desktop_VetMap-4" transform="translate(-664.000000, -3951.000000)" fill="#DB4A56">
            <g id="Group-5" transform="translate(664.000000, 3951.000000)">
                <g id="Page-1" transform="translate(18.992248, 60.891089)">
                    <path d="M3.17877054,0.566658416 C2.45174729,0.555519802 1.73839845,0.834727723 1.20509612,1.34042079 C0.684708527,1.8334901 0.392227907,2.47507426 0.383871318,3.14784653 L0.383871318,3.14858911 C0.374755039,3.94908416 0.66115814,4.6805198 1.18990233,5.2084901 C1.69585581,5.71418317 2.39249147,5.99636139 3.15066202,6.00378713 L3.17877054,6.00378713 C4.72777829,6.00378713 5.95163876,4.8104703 5.96987132,3.27631188 C5.98734419,1.88695545 4.65712713,0.595618812 3.17877054,0.566658416" id="Fill-4"></path>
                </g>
                <g id="Group-4">
                    <g id="Group-3">
                        <path d="M41.0022884,65.7127723 C40.7500713,68.4365347 37.9711256,70.7407426 34.9338853,70.745198 C26.7611411,70.7578218 18.5868775,70.7630198 10.4110946,70.7444554 C6.23963721,70.734802 3.54273798,68.0793564 3.5412186,63.9781188 L3.54045891,57.3060891 L41.0630636,57.3060891 C41.0699008,58.0174752 41.0850946,58.7273762 41.1010481,59.4343069 C41.1481488,61.6048515 41.1929705,63.655099 41.0022884,65.7127723 L41.0022884,65.7127723 Z M3.56476899,9.80584158 C3.59135814,8.22341584 4.18619535,6.7449505 5.2755907,5.58727723 C6.48197829,4.30485149 8.13050543,3.59792079 9.91805581,3.59643564 C18.2267845,3.5890099 26.5332341,3.58826733 34.8404434,3.59643564 C36.6363504,3.59866337 38.2955132,4.3189604 39.5102574,5.62663366 C40.5745829,6.77094059 41.1656217,8.265 41.1830946,9.80584158 L3.56476899,9.80584158 Z M3.57996279,53.7135149 L41.1519473,53.7135149 L41.1519473,13.4414851 L3.57996279,13.4414851 L3.57996279,53.7135149 Z M44.7399628,10.2298515 C44.7392031,9.54742574 44.7164124,8.7439604 44.5500403,7.95980198 C43.5252186,3.12490099 39.5938233,0.118960396 34.2881488,0.113762376 C26.3562264,0.105594059 18.4235442,0.107079208 10.4916217,0.118217822 C9.74788527,0.118960396 8.95324961,0.139752475 8.17684651,0.286039604 C3.29355969,1.20237624 0.00942015504,5.08975248 0.0048620155,9.95955446 C-0.0019751938,16.44 -0.000455813953,22.919703 0.00106356589,29.3994059 L0.00182325581,42.3127723 C0.00106356589,49.5929703 0.000303875969,56.8724257 0.00866046512,64.1518812 C0.00942015504,64.8580693 0.0314511628,65.6125248 0.185668217,66.3454455 C1.20517209,71.1677228 5.03097054,74.184802 10.1710326,74.2182178 C14.2794357,74.2442079 18.3923969,74.2575743 22.4825674,74.2575743 C26.5347535,74.2575743 30.5649085,74.2442079 34.542645,74.2189604 C40.5495132,74.179604 44.7460403,70.0211881 44.7468,64.105099 L44.7468,60.5140099 C44.7475597,43.7526238 44.7483194,26.9912376 44.7399628,10.2298515 L44.7399628,10.2298515 Z" id="Fill-1"></path>
                    </g>
                </g>
            </g>
        </g>
    </g>
</svg>