<?xml version="1.0" encoding="UTF-8"?>
<svg width="156px" height="180px" viewBox="0 0 156 180" version="1.1" xmlns="http://www.w3.org/2000/svg" xmlns:xlink="http://www.w3.org/1999/xlink">
    <!-- Generator: Sketch 46.2 (44496) - http://www.bohemiancoding.com/sketch -->
    <title>Page 1</title>
    <desc>Created with Sketch.</desc>
    <defs></defs>
    <g id="Welcome" stroke="none" stroke-width="1" fill="none" fill-rule="evenodd">
        <g id="desktop_Subscribe" transform="translate(-340.000000, -2493.000000)">
            <g id="Page-1" transform="translate(340.000000, 2493.000000)">
                <path d="M36.7707,11.7294 C38.1267,11.1304 38.8087,10.8434 40.1797,10.2944 C41.8577,9.6224 43.6027,9.8374 44.2637,11.6554 C44.7847,13.0894 44.3287,14.5084 42.0247,15.4364 C40.3937,16.0934 39.5837,16.4404 37.9757,17.1714 C37.2067,15.4814 36.8217,14.6364 36.0527,12.9464 C35.7417,12.2614 36.1937,11.9844 36.7707,11.7294 M39.0677,25.8774 C39.3137,26.3794 39.9647,26.7274 40.7207,26.3704 C41.2727,26.1094 41.7497,25.4664 41.4197,24.7424 C40.4337,22.5754 39.9407,21.4914 38.9547,19.3234 C40.7727,18.4964 41.6897,18.1074 43.5377,17.3774 C46.6937,16.1324 48.0467,13.5494 47.0617,10.5704 C46.2917,8.2444 43.8317,6.3114 39.8487,7.8814 C37.7167,8.7214 36.6597,9.1714 34.5647,10.1284 C32.6067,11.0244 32.4397,12.3474 33.0077,13.5054 C35.4317,18.4544 36.6437,20.9284 39.0677,25.8774" id="Fill-1" fill="#231916"></path>
                <path d="M61.2331,4.0309 C65.2121,3.3399 67.5631,6.1339 67.9521,9.5069 C68.3411,12.8809 66.9171,16.0009 63.4201,16.6089 C59.9221,17.2169 57.5331,14.7369 56.7661,11.4509 C55.9891,8.1229 57.2791,4.7179 61.2331,4.0309 M63.8431,19.0439 C69.0151,18.1449 71.2641,13.7759 70.8741,9.2149 C70.4791,4.5889 66.9171,0.5339 60.8101,1.5959 C54.7281,2.6529 52.7111,7.6769 53.9011,12.1649 C55.0851,16.6319 58.7361,19.9319 63.8431,19.0439" id="Fill-3" fill="#231916"></path>
                <path d="M79.3874,17.7103 C80.2924,17.7113 80.6364,16.8383 80.6424,16.4523 C80.7304,10.3833 80.7744,7.3483 80.8624,1.2793 C80.8724,0.6133 80.2474,0.0003 79.3224,0.0003 C78.2674,0.0003 77.8564,0.8273 77.8624,1.2783 C77.9444,7.3473 77.9854,10.3813 78.0674,16.4503 C78.0774,17.1593 78.6584,17.7093 79.3874,17.7103" id="Fill-5" fill="#231916"></path>
                <path d="M89.0617,18.238 C90.0287,18.343 90.4077,17.615 90.4577,17.209 C91.1047,11.936 91.4287,9.299 92.0757,4.026 C94.3157,9.61 95.2497,12.436 96.7457,18.094 C96.9597,18.88 97.6097,19.577 98.5647,19.786 C100.2117,20.145 100.9687,18.729 101.1207,18.103 C102.4717,12.53 103.1477,9.744 104.4997,4.171 C104.6917,3.377 103.9977,2.856 103.3247,2.703 C102.1847,2.443 101.6857,3.133 101.6007,3.532 C100.4917,8.729 99.9377,11.327 98.8297,16.523 C97.3837,10.826 96.4747,7.978 94.2837,2.345 C93.9717,1.563 93.1277,0.881 91.9987,0.748 C90.0027,0.512 89.3527,2.044 89.2927,2.686 C88.7517,8.394 88.4807,11.248 87.9397,16.957 C87.8627,17.771 88.5117,18.178 89.0617,18.238" id="Fill-7" fill="#231916"></path>
                <path d="M112.0665,8.0443 C113.9755,8.6703 114.9245,9.0063 116.8095,9.7253 C114.8515,14.8573 113.8725,17.4243 111.9145,22.5563 C111.7915,22.8783 111.7325,23.7243 112.6925,24.1063 C113.3395,24.3633 114.0735,24.1793 114.3535,23.5043 C116.4545,18.4383 117.5045,15.9043 119.6055,10.8383 C121.4735,11.6133 122.4015,12.0243 124.2405,12.8923 C124.7165,13.1173 125.7175,13.2933 126.0955,12.5213 C126.3795,11.9423 126.1305,11.0993 125.2775,10.6963 C120.3945,8.3893 117.8935,7.3973 112.8225,5.7363 C112.3675,5.5873 111.2815,5.5813 111.0195,6.4233 C110.8145,7.0793 111.2005,7.7603 112.0665,8.0443" id="Fill-9" fill="#231916"></path>
                <polygon id="Fill-11" fill="#E60214" points="82.633 113.1343 82.633 83.5323 61.353 113.1343"></polygon>
                <path d="M96.3927,121.774 L91.7527,121.774 L91.7527,130.894 C91.7527,133.375 89.9937,135.695 87.1927,135.695 C83.5927,135.695 82.6327,132.335 82.6327,130.894 L82.6327,121.774 L55.5117,121.774 C52.6317,121.774 50.3117,119.295 50.3117,115.854 C50.3117,114.253 50.8717,112.574 51.6717,111.534 L79.1927,73.853 C81.0327,71.373 82.6327,69.693 85.9137,69.693 C89.8327,69.693 91.7527,72.413 91.7527,75.533 L91.7527,113.134 L96.3927,113.134 C98.5527,113.134 100.3927,115.054 100.3927,117.454 C100.3927,120.174 98.2337,121.774 96.3927,121.774 M79.2337,27.242 C37.1107,27.242 2.9627,61.389 2.9627,103.513 C2.9627,145.636 37.1107,179.784 79.2337,179.784 C121.3577,179.784 155.5047,145.636 155.5047,103.513 C155.5047,61.389 121.3577,27.242 79.2337,27.242" id="Fill-13" fill="#E60214"></path>
                <path d="M136.1656,39.8658 C136.8466,39.8658 137.5246,39.5898 138.0186,39.0458 L154.3516,21.0448 C155.2786,20.0218 155.2026,18.4408 154.1796,17.5128 C153.1566,16.5848 151.5756,16.6618 150.6476,17.6848 L134.3146,35.6858 C133.3876,36.7088 133.4636,38.2898 134.4866,39.2178 C134.9656,39.6518 135.5666,39.8658 136.1656,39.8658" id="Fill-15" fill="#231916"></path>
                <path d="M19.8335,39.8658 C20.4575,39.8658 21.0825,39.6338 21.5665,39.1668 C22.5615,38.2088 22.5915,36.6268 21.6335,35.6318 L4.3005,17.6308 C3.3435,16.6368 1.7605,16.6058 0.7665,17.5638 C-0.2285,18.5218 -0.2585,20.1038 0.6995,21.0988 L18.0325,39.0998 C18.5225,39.6098 19.1775,39.8658 19.8335,39.8658" id="Fill-17" fill="#231916"></path>
            </g>
        </g>
    </g>
</svg>