<?xml version="1.0" encoding="UTF-8"?>
<svg width="156px" height="180px" viewBox="0 0 156 180" version="1.1" xmlns="http://www.w3.org/2000/svg" xmlns:xlink="http://www.w3.org/1999/xlink">
    <!-- Generator: Sketch 46.2 (44496) - http://www.bohemiancoding.com/sketch -->
    <title>Page 1</title>
    <desc>Created with Sketch.</desc>
    <defs></defs>
    <g id="Welcome" stroke="none" stroke-width="1" fill="none" fill-rule="evenodd">
        <g id="desktop_Subscribe" transform="translate(-333.000000, -1981.000000)">
            <g id="Page-1" transform="translate(333.000000, 1981.000000)">
                <path d="M36.8128,11.491 C38.1718,10.9 38.8558,10.616 40.2298,10.075 C41.9118,9.412 43.6548,9.638 44.3058,11.459 C44.8198,12.896 44.3548,14.312 42.0458,15.227 C40.4108,15.875 39.5988,16.217 37.9868,16.94 C37.2278,15.246 36.8478,14.398 36.0878,12.704 C35.7808,12.017 36.2348,11.743 36.8128,11.491 M39.0308,25.651 C39.2738,26.155 39.9228,26.507 40.6808,26.154 C41.2348,25.896 41.7148,25.256 41.3888,24.53 C40.4148,22.357 39.9278,21.27 38.9538,19.097 C40.7768,18.28 41.6958,17.896 43.5488,17.177 C46.7108,15.949 48.0788,13.374 47.1098,10.39 C46.3528,8.059 43.9038,6.113 39.9118,7.66 C37.7758,8.489 36.7158,8.932 34.6158,9.878 C32.6528,10.762 32.4788,12.085 33.0398,13.246 C35.4358,18.208 36.6348,20.689 39.0308,25.651" id="Fill-1" fill="#231916"></path>
                <path d="M61.318,3.9297 C65.3,3.2607 67.636,6.0677 68.007,9.4437 C68.377,12.8197 66.935,15.9317 63.434,16.5197 C59.933,17.1077 57.558,14.6147 56.81,11.3247 C56.052,7.9927 57.36,4.5947 61.318,3.9297 M63.844,18.9567 C69.021,18.0877 71.294,13.7307 70.93,9.1667 C70.561,4.5397 67.022,0.4647 60.908,1.4927 C54.82,2.5157 52.776,7.5287 53.94,12.0227 C55.099,16.4957 58.732,19.8157 63.844,18.9567" id="Fill-3" fill="#231916"></path>
                <path d="M79.3955,17.7105 C80.3005,17.7165 80.6495,16.8455 80.6575,16.4595 C80.7795,10.3905 80.8405,7.3565 80.9625,1.2885 C80.9765,0.6225 80.3545,0.0055 79.4305,0.0005 C78.3745,-0.0055 77.9585,0.8185 77.9625,1.2705 C78.0105,7.3395 78.0345,10.3745 78.0835,16.4435 C78.0885,17.1525 78.6665,17.7055 79.3955,17.7105" id="Fill-5" fill="#231916"></path>
                <path d="M89.0667,18.2923 C90.0327,18.4023 90.4157,17.6763 90.4677,17.2713 C91.1447,12.0013 91.4837,9.3673 92.1597,4.0973 C94.3687,9.6943 95.2877,12.5253 96.7517,18.1913 C96.9617,18.9793 97.6077,19.6793 98.5607,19.8933 C100.2067,20.2623 100.9707,18.8503 101.1257,18.2243 C102.5087,12.6593 103.1997,9.8773 104.5827,4.3123 C104.7797,3.5193 104.0887,2.9943 103.4167,2.8373 C102.2787,2.5713 101.7747,3.2583 101.6877,3.6573 C100.5497,8.8473 99.9817,11.4423 98.8437,16.6313 C97.4307,10.9273 96.5377,8.0733 94.3777,2.4283 C94.0697,1.6453 93.2297,0.9583 92.1007,0.8183 C90.1067,0.5713 89.4487,2.1003 89.3847,2.7413 C88.8117,8.4473 88.5247,11.2993 87.9517,17.0053 C87.8707,17.8183 88.5177,18.2293 89.0667,18.2923" id="Fill-7" fill="#231916"></path>
                <path d="M112.1282,8.2275 C114.0342,8.8635 114.9812,9.2055 116.8622,9.9345 C114.8752,15.0565 113.8812,17.6175 111.8952,22.7385 C111.7702,23.0595 111.7062,23.9055 112.6642,24.2925 C113.3102,24.5535 114.0452,24.3735 114.3282,23.7005 C116.4572,18.6455 117.5222,16.1185 119.6512,11.0635 C121.5152,11.8485 122.4412,12.2645 124.2742,13.1435 C124.7502,13.3715 125.7502,13.5525 126.1322,12.7825 C126.4192,12.2055 126.1752,11.3605 125.3242,10.9535 C120.4542,8.6195 117.9582,7.6135 112.8972,5.9235 C112.4422,5.7715 111.3572,5.7605 111.0902,6.6005 C110.8812,7.2555 111.2642,7.9385 112.1282,8.2275" id="Fill-9" fill="#231916"></path>
                <path d="M77.8235,135.6047 C60.0625,135.6047 53.4235,123.3647 53.4235,120.1647 C53.4235,117.7637 55.5835,115.5237 58.3835,115.5237 C60.7835,115.5237 61.5035,116.6437 62.8635,119.0437 C65.8235,124.4047 71.1035,126.7237 78.4635,126.7237 C89.1835,126.7237 94.3845,121.2047 94.3845,115.3637 C94.3845,109.4437 89.1035,105.8437 82.3845,105.8437 L71.2625,105.8437 C67.0235,105.8437 66.7035,102.3237 66.7035,101.4437 C66.7035,100.0027 67.1825,97.4437 70.7835,97.4437 L77.9035,97.4437 C83.5045,97.4437 92.5445,94.8827 92.5445,86.9627 C92.5445,78.6427 82.2235,78.5627 79.8235,78.5627 C69.8235,78.5627 66.4635,82.2437 64.3025,86.2437 C63.1025,88.4037 62.3835,89.6827 59.9835,89.6827 C56.7835,89.6827 55.0225,87.1237 55.0225,85.0427 C55.0225,80.2437 63.3435,69.6827 79.5835,69.6827 C92.9435,69.6827 101.4245,76.8827 101.4245,86.8827 C101.4245,95.5237 95.7445,98.6437 92.0635,100.6437 C95.2635,101.9227 103.4245,105.2037 103.4245,115.9237 C103.4245,128.7237 91.1835,135.6047 77.8235,135.6047 M79.1885,27.2407 C37.0655,27.0047 2.7275,60.9607 2.4915,103.0837 C2.2555,145.2067 36.2115,179.5447 78.3345,179.7807 C120.4575,180.0167 154.7955,146.0607 155.0315,103.9377 C155.2675,61.8147 121.3115,27.4767 79.1885,27.2407" id="Fill-11" fill="#E60214"></path>
                <path d="M136.0487,40.1834 C136.7297,40.1874 137.4087,39.9144 137.9057,39.3734 L154.3397,21.4644 C155.2727,20.4464 155.2047,18.8654 154.1877,17.9324 C153.1697,16.9974 151.5887,17.0664 150.6547,18.0844 L134.2217,35.9934 C133.2877,37.0104 133.3557,38.5924 134.3737,39.5254 C134.8497,39.9624 135.4497,40.1804 136.0487,40.1834" id="Fill-13" fill="#231916"></path>
                <path d="M19.7185,39.5322 C20.3425,39.5352 20.9685,39.3072 21.4555,38.8422 C22.4555,37.8902 22.4945,36.3082 21.5425,35.3082 L4.3105,17.2102 C3.3585,16.2112 1.7765,16.1712 0.7765,17.1242 C-0.2235,18.0762 -0.2625,19.6582 0.6895,20.6592 L17.9215,38.7562 C18.4095,39.2692 19.0625,39.5282 19.7185,39.5322" id="Fill-15" fill="#231916"></path>
            </g>
        </g>
    </g>
</svg>