<?xml version="1.0" encoding="UTF-8"?>
<svg width="47px" height="47px" viewBox="0 0 47 47" version="1.1" xmlns="http://www.w3.org/2000/svg" xmlns:xlink="http://www.w3.org/1999/xlink">
    <!-- Generator: Sketch 46.2 (44496) - http://www.bohemiancoding.com/sketch -->
    <title>Group 6</title>
    <desc>Created with Sketch.</desc>
    <defs>
        <polygon id="path-1" points="46.6376998 0.167332748 46.6376998 46.44161 0.330539482 46.44161 0.330539482 0.167332748 46.6376998 0.167332748"></polygon>
    </defs>
    <g id="Welcome" stroke="none" stroke-width="1" fill="none" fill-rule="evenodd">
        <g id="desktop_product_VOICE" transform="translate(-464.000000, -5587.000000)">
            <g id="Page-1" transform="translate(347.000000, 5587.000000)">
                <g id="Group-6" transform="translate(116.695316, 0.249645)">
                    <mask id="mask-2" fill="white">
                        <use xlink:href="#path-1"></use>
                    </mask>
                    <g id="Clip-5"></g>
                    <path d="M36.1760064,17.9041872 C36.1864256,18.1709194 36.1914268,18.4397354 36.1914268,18.7118855 C36.1914268,26.910565 29.950728,36.3641359 18.5337585,36.3641359 C15.0291481,36.3641359 11.7666804,35.3405513 9.02142314,33.5751179 C9.50820931,33.634299 10.0004135,33.6647232 10.5013698,33.6647232 C13.4108341,33.6647232 16.0839904,32.672813 18.2095122,31.0069874 C15.4942622,30.9565583 13.2045334,29.165702 12.4147562,26.6975961 C12.7906818,26.7717809 13.1766099,26.8072063 13.5812926,26.8072063 C14.1430972,26.8072063 14.693649,26.7346885 15.2137767,26.5909032 C12.3755799,26.0236806 10.2338041,23.5163984 10.2338041,20.5094102 C10.2338041,20.4823202 10.2338041,20.4585643 10.2396389,20.4281402 C11.0715098,20.8961718 12.0329958,21.1716561 13.0515792,21.2037473 C11.3857536,20.0951418 10.2859002,18.1930081 10.2859002,16.039146 C10.2859002,14.9038673 10.5943093,13.8394393 11.1256897,12.9187966 C14.1843573,16.675969 18.7625646,19.144075 23.9150796,19.4062227 C23.809637,18.9481935 23.7562906,18.4784949 23.7562906,17.9904584 C23.7562906,14.5642006 26.535723,11.785185 29.9607305,11.785185 C31.7490862,11.785185 33.3598983,12.5403704 34.4893423,13.7431657 C35.9051065,13.4660143 37.2362667,12.9508878 38.4348943,12.2365458 C37.9685298,13.6889857 36.9878724,14.9038673 35.7038071,15.6723893 C36.9599488,15.5223525 38.15941,15.1910211 39.2667652,14.6975667 C38.4398955,15.9395382 37.3850532,17.0306394 36.1760064,17.9041872 M38.9295991,0.167332748 L8.04409987,0.167332748 C3.77763576,0.167332748 0.330539482,3.60859426 0.330539482,7.88589436 L0.330539482,38.7343011 C0.330539482,42.9899292 3.77763576,46.44161 8.04409987,46.44161 L23.2536672,46.44161 L30.5383723,46.44161 L38.9295991,46.44161 C43.1860607,46.44161 46.6377415,42.9899292 46.6377415,38.7343011 L46.6377415,7.88589436 C46.6377415,3.60859426 43.1860607,0.167332748 38.9295991,0.167332748" id="Fill-4" fill="#231916" mask="url(#mask-2)"></path>
                </g>
            </g>
        </g>
    </g>
</svg>